<?xml version="1.0" encoding="utf-8"?>
<!-- Generator: Adobe Illustrator 19.0.0, SVG Export Plug-In . SVG Version: 6.00 Build 0)  -->
<svg version="1.1" id="レイヤー_2" xmlns="http://www.w3.org/2000/svg" xmlns:xlink="http://www.w3.org/1999/xlink" x="0px"
	 y="0px" viewBox="-77 226.1 439.9 389.8" style="enable-background:new -77 226.1 439.9 389.8;" xml:space="preserve">
<style type="text/css">
	.st0{fill:none;}
	.st1{fill:#F3D1EA;}
</style>
<g id="XMLID_78_">
	<rect id="XMLID_91_" x="-77" y="226.1" class="st0" width="439.9" height="389.8"/>
	<path id="XMLID_88_" class="st1" d="M132.2,271.3c-1-1.2-2.7-1.6-4.1-1c-5.9,2.2-17,5.3-22,4.6c-13.2-1.9-18.5-9.9-24.1-18.3
		c-1.7-2.6-3.5-5.3-5.6-7.8c-9.1-11.2-21.1-10-28.5-7c-4.9-8-13.2-15.3-24-14.8c-7,0.3-13.2,3.7-17.4,8.8
		c-4.9-4.6-10.8-6.9-17.4-6.6c-5.5,0.3-10.7,2.6-14.6,6.5c-2.9,3-4.9,6.6-5.8,10.6c-0.5,0-0.9,0-1.4,0c-12.1,0.6-21.5,10.9-20.9,23
		c0.3,5.9,2.8,11.3,7.2,15.2c3.3,3,7.4,4.9,11.7,5.5c0,1,0,2,0,3c0.5,6.7,3.6,12.8,8.7,17.2c4.9,4.2,11.1,6.6,17.4,6.6
		c0.2,0,0.4,0,0.7,0c5.4-0.1,10.4-2,14.5-5.3c4.4,4,9.6,7.1,15.3,9c4.2,1.4,8.5,2.1,12.8,2.1c5.5,0,10.9-1.2,15.6-3.6
		c3.4-1.7,6.3-4.1,8.8-6.9c5.1,1.2,10.1,1.8,15,1.8c14.4,0,28-5.1,39.9-15.3c12.4-10.5,18.6-22.6,18.8-23.1
		C133.4,274.1,133.2,272.4,132.2,271.3z M108.8,293c-13.5,11.4-28.8,15.5-45.5,12.3c0.5-1.1,1-2.3,1.3-3.4
		c2.4-7.5,1.7-15.4-1.9-22.3c-3-5.7-8-10-14.1-12c-6.2-2-12.7-1.4-18.4,1.5c-4.8,2.5-8.3,6.6-9.9,11.8c-1.6,5.1-1.2,10.6,1.3,15.3
		c2.1,4,5.6,7,9.8,8.3c4.3,1.4,8.8,1,12.8-1.1c1.9-1,2.6-3.2,1.6-5.1c-1-1.9-3.2-2.6-5.1-1.6c-2.2,1.1-4.7,1.3-7.1,0.6
		c-2.4-0.8-4.3-2.4-5.4-4.6c-1.5-3-1.8-6.4-0.8-9.6c1-3.2,3.2-5.8,6.2-7.3c3.9-2,8.4-2.4,12.7-1.1c4.2,1.4,7.7,4.3,9.7,8.2
		c2.7,5.2,3.2,11,1.4,16.6c-1.8,5.5-5.6,10-10.7,12.7c-6.5,3.3-14.7,3.7-22.5,1.1c-5.6-1.9-10.7-5.2-14.8-9.6
		c-0.1-0.1-0.2-0.2-0.3-0.3c-2.7-2.9-5-6.3-6.8-10.1c-0.9-1.9-3.1-2.7-5-1.8s-2.7,3.1-1.8,5c1.6,3.4,3.5,6.5,5.8,9.3
		c-6.3,4.8-15.7,4.4-22.5-1.4c-3.6-3.1-5.7-7.3-6.1-12c-0.4-4.7,1.1-9.2,4.2-12.8c1.4-1.6,1.2-4-0.4-5.3c-1.6-1.4-4-1.2-5.3,0.4
		c-2,2.4-3.6,5-4.6,7.9c-3-0.3-5.8-1.6-8.1-3.7c-2.8-2.6-4.5-6.1-4.7-10c-0.4-7.9,5.8-14.7,13.7-15.1c0.3,0,0.6,0,0.9,0
		c1.1,5.9,5.4,10.1,11.3,10.9c0.5,0.1,1,0.1,1.5,0.1c2.5,0,5-0.8,7-2.4c2.4-1.9,4-4.6,4.4-7.6c0.3-2.1-1.2-4-3.3-4.2
		c-2.1-0.3-4,1.2-4.2,3.3c-0.1,1-0.7,2-1.5,2.6c-0.8,0.6-1.8,0.9-2.9,0.8c-3.2-0.4-5.1-3-5-6.9c0-0.2,0-0.3,0-0.5
		c0.6-7.1,6.5-12.8,13.7-13.1c5.1-0.2,9.5,1.7,13.2,5.8c-1.1,2.9-1.6,6.1-1.4,9.3c0.1,2.1,1.9,3.7,4,3.6c2.1-0.1,3.7-1.9,3.6-4
		c-0.4-9,6.5-16.6,15.5-17.1c8.7-0.4,15.5,7.2,18.7,13.9c0.5,1,1.3,1.7,2.4,2c1,0.3,2.1,0.1,3.1-0.4c0.5-0.3,12.8-7.9,22.1,3.5
		c1.8,2.2,3.4,4.6,5.1,7.2c6,9,12.8,19.2,29.3,21.6c4.3,0.6,10.4-0.5,15.6-1.8C117.7,284.3,113.8,288.8,108.8,293z"/>
	<path id="XMLID_85_" class="st1" d="M132.2,466.1c-1-1.2-2.7-1.6-4.1-1c-5.9,2.2-17,5.3-22,4.6c-13.2-1.9-18.5-9.9-24.1-18.3
		c-1.7-2.6-3.5-5.3-5.6-7.8c-9.1-11.2-21.1-10-28.5-7c-4.9-8-13.2-15.3-24-14.8c-7,0.3-13.2,3.7-17.4,8.8
		c-4.9-4.6-10.8-6.9-17.4-6.6c-5.5,0.3-10.7,2.6-14.6,6.5c-2.9,3-4.9,6.6-5.8,10.6c-0.5,0-0.9,0-1.4,0c-12.1,0.6-21.5,10.9-20.9,23
		c0.3,5.9,2.8,11.3,7.2,15.2c3.3,3,7.4,4.9,11.7,5.5c0,1,0,2,0,3c0.5,6.7,3.6,12.8,8.7,17.2c4.9,4.2,11.1,6.6,17.4,6.6
		c0.2,0,0.4,0,0.7,0c5.4-0.1,10.4-2,14.5-5.3c4.4,4,9.6,7.1,15.3,9c4.2,1.4,8.5,2.1,12.8,2.1c5.5,0,10.9-1.2,15.6-3.6
		c3.4-1.7,6.3-4.1,8.8-6.9c5.1,1.2,10.1,1.8,15,1.8c14.4,0,28-5.1,39.9-15.3c12.4-10.5,18.6-22.6,18.8-23.1
		C133.4,468.9,133.2,467.2,132.2,466.1z M108.8,487.8c-13.5,11.4-28.8,15.5-45.5,12.3c0.5-1.1,1-2.3,1.3-3.4
		c2.4-7.5,1.7-15.4-1.9-22.3c-3-5.7-8-10-14.1-12c-6.2-2-12.7-1.4-18.4,1.5c-4.8,2.5-8.3,6.6-9.9,11.8c-1.6,5.1-1.2,10.6,1.3,15.3
		c2.1,4,5.6,7,9.8,8.3c4.3,1.4,8.8,1,12.8-1.1c1.9-1,2.6-3.2,1.6-5.1c-1-1.9-3.2-2.6-5.1-1.6c-2.2,1.1-4.7,1.3-7.1,0.6
		c-2.4-0.8-4.3-2.4-5.4-4.6c-1.5-3-1.8-6.4-0.8-9.6c1-3.2,3.2-5.8,6.2-7.3c3.9-2,8.4-2.4,12.7-1.1c4.2,1.4,7.7,4.3,9.7,8.2
		c2.7,5.2,3.2,11,1.4,16.6c-1.8,5.5-5.6,10-10.7,12.7c-6.5,3.3-14.7,3.7-22.5,1.1c-5.6-1.9-10.7-5.2-14.8-9.6
		c-0.1-0.1-0.2-0.2-0.3-0.3c-2.7-2.9-5-6.3-6.8-10.1c-0.9-1.9-3.1-2.7-5-1.8s-2.7,3.1-1.8,5c1.6,3.4,3.5,6.5,5.8,9.3
		c-6.3,4.8-15.7,4.4-22.5-1.4c-3.6-3.1-5.7-7.3-6.1-12s1.1-9.2,4.2-12.8c1.4-1.6,1.2-4-0.4-5.3c-1.6-1.4-4-1.2-5.3,0.4
		c-2,2.4-3.6,5-4.6,7.9c-3-0.3-5.8-1.6-8.1-3.7c-2.8-2.6-4.5-6.1-4.7-10c-0.4-7.9,5.8-14.7,13.7-15.1c0.3,0,0.6,0,0.9,0
		c1.1,5.9,5.4,10.1,11.3,10.9c0.5,0.1,1,0.1,1.5,0.1c2.5,0,5-0.8,7-2.4c2.4-1.9,4-4.6,4.4-7.6c0.3-2.1-1.2-4-3.3-4.2
		c-2.1-0.3-4,1.2-4.2,3.3c-0.1,1-0.7,2-1.5,2.6c-0.8,0.6-1.8,0.9-2.9,0.8c-3.2-0.4-5.1-3-5-6.9c0-0.2,0-0.3,0-0.5
		c0.6-7.1,6.5-12.8,13.7-13.1c5.1-0.2,9.5,1.7,13.2,5.8c-1.1,2.9-1.6,6.1-1.4,9.3c0.1,2.1,1.9,3.7,4,3.6c2.1-0.1,3.7-1.9,3.6-4
		c-0.4-9,6.5-16.6,15.5-17.1c8.7-0.4,15.5,7.2,18.7,13.9c0.5,1,1.3,1.7,2.4,2c1,0.3,2.1,0.1,3.1-0.4c0.5-0.3,12.8-7.9,22.1,3.5
		c1.8,2.2,3.4,4.6,5.1,7.2c6,9,12.8,19.2,29.3,21.6c4.3,0.6,10.4-0.5,15.6-1.8C117.7,479.1,113.8,483.6,108.8,487.8z"/>
	<path id="XMLID_82_" class="st1" d="M352.6,368.6c-1-1.2-2.7-1.6-4.1-1c-5.9,2.2-17,5.3-22,4.6c-13.2-1.9-18.5-9.9-24.1-18.3
		c-1.7-2.6-3.5-5.3-5.6-7.8c-9.1-11.2-21.1-10-28.5-7c-4.9-8-13.2-15.3-24-14.8c-7,0.3-13.2,3.7-17.4,8.8
		c-4.9-4.6-10.8-6.9-17.4-6.6c-5.5,0.3-10.7,2.6-14.6,6.5c-2.9,3-4.9,6.6-5.8,10.6c-0.5,0-0.9,0-1.4,0c-12.1,0.6-21.5,10.9-20.9,23
		c0.3,5.9,2.8,11.3,7.2,15.2c3.3,3,7.4,4.9,11.7,5.5c0,1,0,2,0,3c0.5,6.7,3.6,12.8,8.7,17.2c4.9,4.2,11.1,6.6,17.4,6.6
		c0.2,0,0.4,0,0.7,0c5.4-0.1,10.5-2,14.5-5.3c4.4,4,9.6,7.1,15.3,9c4.2,1.4,8.5,2.1,12.8,2.1c5.5,0,10.9-1.2,15.6-3.6
		c3.4-1.7,6.3-4.1,8.8-6.9c5.1,1.2,10.1,1.8,15,1.8c14.4,0,28-5.1,39.9-15.3c12.4-10.5,18.6-22.6,18.8-23.1
		C353.9,371.4,353.6,369.8,352.6,368.6z M329.3,390.3c-13.5,11.4-28.8,15.5-45.5,12.3c0.5-1.1,1-2.3,1.3-3.4
		c2.4-7.5,1.7-15.4-1.9-22.3c-3-5.7-8-10-14.1-12c-6.2-2-12.7-1.4-18.4,1.5c-4.8,2.5-8.3,6.6-9.9,11.8c-1.6,5.1-1.2,10.6,1.3,15.3
		c2.1,4,5.6,7,9.8,8.3c4.3,1.4,8.8,1,12.8-1.1c1.9-1,2.6-3.2,1.6-5.1c-1-1.9-3.2-2.6-5.1-1.6c-2.2,1.1-4.7,1.3-7.1,0.6
		c-2.4-0.8-4.3-2.4-5.4-4.6c-1.5-3-1.8-6.4-0.8-9.6c1-3.2,3.2-5.8,6.2-7.3c3.9-2,8.4-2.4,12.7-1.1c4.2,1.4,7.7,4.3,9.7,8.2
		c2.7,5.2,3.2,11,1.4,16.6c-1.8,5.5-5.6,10-10.7,12.7c-6.5,3.3-14.7,3.7-22.5,1.1c-5.6-1.9-10.7-5.2-14.8-9.6
		c-0.1-0.1-0.2-0.2-0.3-0.3c-2.7-2.9-5-6.3-6.8-10.1c-0.9-1.9-3.1-2.7-5-1.8c-1.9,0.9-2.7,3.1-1.8,5c1.6,3.4,3.5,6.5,5.8,9.3
		c-6.3,4.8-15.7,4.4-22.5-1.4c-3.6-3.1-5.7-7.3-6.1-12c-0.4-4.7,1.1-9.2,4.2-12.8c1.4-1.6,1.2-4-0.4-5.3c-1.6-1.4-4-1.2-5.3,0.4
		c-2,2.4-3.6,5-4.6,7.9c-3-0.3-5.8-1.6-8.1-3.7c-2.8-2.6-4.5-6.1-4.7-10c-0.4-7.9,5.8-14.7,13.7-15.1c0.3,0,0.6,0,0.9,0
		c1.1,5.9,5.4,10.1,11.3,10.9c0.5,0.1,1,0.1,1.5,0.1c2.5,0,5-0.8,7-2.4c2.4-1.9,4-4.6,4.4-7.6c0.3-2.1-1.2-4-3.3-4.2
		c-2.1-0.3-4,1.2-4.2,3.3c-0.1,1-0.7,2-1.5,2.6c-0.8,0.6-1.8,0.9-2.9,0.8c-3.2-0.4-5.1-3-5-6.9c0-0.2,0-0.3,0-0.5
		c0.6-7.1,6.5-12.8,13.7-13.1c5.1-0.2,9.5,1.7,13.2,5.8c-1.1,2.9-1.6,6.1-1.4,9.3c0.1,2.1,1.9,3.7,4,3.6c2.1-0.1,3.7-1.9,3.6-4
		c-0.4-9,6.5-16.6,15.5-17.1c8.7-0.4,15.5,7.2,18.7,13.9c0.5,1,1.3,1.7,2.4,2c1,0.3,2.1,0.1,3.1-0.4c0.5-0.3,12.8-7.9,22.1,3.5
		c1.8,2.2,3.4,4.6,5.1,7.2c6,9,12.8,19.2,29.3,21.6c4.3,0.6,10.4-0.5,15.6-1.8C338.2,381.6,334.2,386.1,329.3,390.3z"/>
	<path id="XMLID_79_" class="st1" d="M352.6,563.4c-1-1.2-2.7-1.6-4.1-1c-5.9,2.2-17,5.3-22,4.6c-13.2-1.9-18.5-9.9-24.1-18.3
		c-1.7-2.6-3.5-5.3-5.6-7.8c-9.1-11.2-21.1-10-28.5-7c-4.9-8-13.2-15.3-24-14.8c-7,0.3-13.2,3.7-17.4,8.8
		c-4.9-4.6-10.8-6.9-17.4-6.6c-5.5,0.3-10.7,2.6-14.6,6.5c-2.9,3-4.9,6.6-5.8,10.6c-0.5,0-0.9,0-1.4,0c-12.1,0.6-21.5,10.9-20.9,23
		c0.3,5.9,2.8,11.3,7.2,15.2c3.3,3,7.4,4.9,11.7,5.5c0,1,0,2,0,3c0.5,6.7,3.6,12.8,8.7,17.2c4.9,4.2,11.1,6.6,17.4,6.6
		c0.2,0,0.4,0,0.7,0c5.4-0.1,10.5-2,14.5-5.3c4.4,4,9.6,7.1,15.3,9c4.2,1.4,8.5,2.1,12.8,2.1c5.5,0,10.9-1.2,15.6-3.6
		c3.4-1.7,6.3-4.1,8.8-6.9c5.1,1.2,10.1,1.8,15,1.8c14.4,0,28-5.1,39.9-15.3c12.4-10.5,18.6-22.6,18.8-23.1
		C353.9,566.2,353.6,564.6,352.6,563.4z M329.3,585.2c-13.5,11.4-28.8,15.5-45.5,12.3c0.5-1.1,1-2.3,1.3-3.4
		c2.4-7.5,1.7-15.4-1.9-22.3c-3-5.7-8-10-14.1-12c-6.2-2-12.7-1.4-18.4,1.5c-4.8,2.5-8.3,6.6-9.9,11.8s-1.2,10.6,1.3,15.3
		c2.1,4,5.6,7,9.8,8.3c4.3,1.4,8.8,1,12.8-1.1c1.9-1,2.6-3.2,1.6-5.1c-1-1.9-3.2-2.6-5.1-1.6c-2.2,1.1-4.7,1.3-7.1,0.6
		c-2.4-0.8-4.3-2.4-5.4-4.6c-1.5-3-1.8-6.4-0.8-9.6c1-3.2,3.2-5.8,6.2-7.3c3.9-2,8.4-2.4,12.7-1.1c4.2,1.4,7.7,4.3,9.7,8.2
		c2.7,5.2,3.2,11,1.4,16.6c-1.8,5.5-5.6,10-10.7,12.7c-6.5,3.3-14.7,3.7-22.5,1.1c-5.6-1.9-10.7-5.2-14.8-9.6
		c-0.1-0.1-0.2-0.2-0.3-0.3c-2.7-2.9-5-6.3-6.8-10.1c-0.9-1.9-3.1-2.7-5-1.8c-1.9,0.9-2.7,3.1-1.8,5c1.6,3.4,3.5,6.5,5.8,9.3
		c-6.3,4.8-15.7,4.4-22.5-1.4c-3.6-3.1-5.7-7.3-6.1-12c-0.4-4.7,1.1-9.2,4.2-12.8c1.4-1.6,1.2-4-0.4-5.3c-1.6-1.4-4-1.2-5.3,0.4
		c-2,2.4-3.6,5-4.6,7.9c-3-0.3-5.8-1.6-8.1-3.7c-2.8-2.6-4.5-6.1-4.7-10c-0.4-7.9,5.8-14.7,13.7-15.1c0.3,0,0.6,0,0.9,0
		c1.1,5.9,5.4,10.1,11.3,10.9c0.5,0.1,1,0.1,1.5,0.1c2.5,0,5-0.8,7-2.4c2.4-1.9,4-4.6,4.4-7.6c0.3-2.1-1.2-4-3.3-4.2
		c-2.1-0.3-4,1.2-4.2,3.3c-0.1,1-0.7,2-1.5,2.6c-0.8,0.6-1.8,0.9-2.9,0.8c-3.2-0.4-5.1-3-5-6.9c0-0.2,0-0.3,0-0.5
		c0.6-7.1,6.5-12.8,13.7-13.1c5.1-0.2,9.5,1.7,13.2,5.8c-1.1,2.9-1.6,6.1-1.4,9.3c0.1,2.1,1.9,3.7,4,3.6c2.1-0.1,3.7-1.9,3.6-4
		c-0.4-9,6.5-16.6,15.5-17.1c8.7-0.4,15.5,7.2,18.7,13.9c0.5,1,1.3,1.7,2.4,2c1,0.3,2.1,0.1,3.1-0.4c0.5-0.3,12.8-7.9,22.1,3.5
		c1.8,2.2,3.4,4.6,5.1,7.2c6,9,12.8,19.2,29.3,21.6c4.3,0.6,10.4-0.5,15.6-1.8C338.2,576.4,334.2,580.9,329.3,585.2z"/>
</g>
</svg>
