<?xml version="1.0" encoding="utf-8"?>
<!-- Generator: Adobe Illustrator 19.0.0, SVG Export Plug-In . SVG Version: 6.00 Build 0)  -->
<svg version="1.1" id="レイヤー_2" xmlns="http://www.w3.org/2000/svg" xmlns:xlink="http://www.w3.org/1999/xlink" x="0px"
	 y="0px" viewBox="0 0 439.857 389.796" style="enable-background:new 0 0 439.857 389.796;" xml:space="preserve">
<style type="text/css">
	.st0{fill:none;}
	.st1{fill:#F3B0CD;}
</style>
<g id="XMLID_78_">
	<rect id="XMLID_91_" class="st0" width="439.857" height="389.796"/>
	<path id="XMLID_88_" class="st1" d="M209.192,45.183c-1.033-1.159-2.67-1.568-4.126-1.031c-5.875,2.162-17.043,5.32-22.006,4.591
		c-13.185-1.94-18.479-9.892-24.083-18.312c-1.739-2.613-3.538-5.316-5.569-7.799c-9.127-11.16-21.113-10.015-28.453-6.979
		c-4.871-7.973-13.211-15.269-24.021-14.76c-7.049,0.332-13.246,3.709-17.384,8.794c-4.903-4.624-10.838-6.884-17.415-6.575
		C60.594,3.375,55.4,5.695,51.512,9.647c-2.909,2.956-4.896,6.626-5.786,10.602c-0.471-0.008-0.942-0.001-1.413,0.021
		c-12.105,0.57-21.49,10.881-20.92,22.986c0.276,5.864,2.819,11.269,7.16,15.221c3.313,3.015,7.37,4.908,11.712,5.513
		c-0.04,0.978-0.03,1.964,0.045,2.955c0.505,6.69,3.584,12.784,8.672,17.158c4.937,4.245,11.105,6.56,17.438,6.56
		c0.221,0,0.444-0.003,0.665-0.008c5.439-0.139,10.45-2.001,14.469-5.307c4.431,4.026,9.605,7.102,15.31,9.033
		c4.221,1.429,8.549,2.138,12.771,2.138c5.549,0,10.915-1.224,15.61-3.647c3.387-1.748,6.34-4.09,8.757-6.891
		c5.084,1.205,10.098,1.805,15.014,1.805c14.416-0.001,27.98-5.149,39.897-15.267c12.393-10.523,18.573-22.609,18.83-23.118
		C210.444,48.014,210.225,46.342,209.192,45.183z M185.833,66.918c-13.518,11.392-28.791,15.508-45.463,12.275
		c0.513-1.11,0.969-2.254,1.347-3.438c2.38-7.452,1.715-15.384-1.871-22.337c-2.962-5.741-7.982-9.985-14.136-11.951
		c-6.153-1.965-12.704-1.417-18.445,1.545c-4.772,2.462-8.3,6.635-9.934,11.75c-1.634,5.115-1.177,10.561,1.285,15.333
		c2.062,3.997,5.557,6.952,9.842,8.321c4.284,1.368,8.845,0.987,12.842-1.076c1.854-0.957,2.582-3.236,1.626-5.09
		c-0.957-1.855-3.236-2.582-5.09-1.626c-2.204,1.137-4.718,1.348-7.079,0.593c-2.362-0.754-4.288-2.383-5.425-4.586
		c-1.537-2.978-1.821-6.376-0.802-9.569c1.02-3.192,3.222-5.797,6.2-7.333c3.947-2.037,8.449-2.414,12.681-1.062
		c4.231,1.351,7.683,4.27,9.719,8.217c2.661,5.158,3.154,11.044,1.388,16.573c-1.765,5.529-5.579,10.039-10.737,12.7
		c-6.457,3.331-14.656,3.721-22.494,1.067c-5.647-1.912-10.675-5.195-14.786-9.576c-0.079-0.096-0.164-0.188-0.255-0.278
		c-2.694-2.928-4.986-6.332-6.784-10.135c-0.892-1.887-3.145-2.693-5.031-1.801c-1.886,0.892-2.693,3.144-1.801,5.031
		c1.601,3.385,3.536,6.506,5.757,9.327c-6.275,4.793-15.728,4.385-22.478-1.419c-3.557-3.058-5.71-7.318-6.063-11.995
		c-0.353-4.678,1.137-9.213,4.195-12.77c1.36-1.582,1.18-3.968-0.402-5.329c-1.583-1.361-3.968-1.18-5.328,0.402
		c-2.03,2.361-3.57,5.027-4.595,7.871c-2.997-0.334-5.804-1.595-8.077-3.663c-2.849-2.593-4.517-6.14-4.698-9.987
		c-0.374-7.943,5.784-14.709,13.727-15.083c0.301-0.014,0.603-0.019,0.904-0.014C46.7,33.703,50.93,37.9,56.884,38.658
		c0.492,0.063,0.983,0.094,1.47,0.094c2.523,0,4.962-0.829,6.989-2.399c2.42-1.873,3.965-4.577,4.352-7.613
		c0.264-2.07-1.201-3.962-3.271-4.225c-2.067-0.262-3.962,1.201-4.225,3.271c-0.131,1.033-0.657,1.953-1.481,2.591
		c-0.823,0.637-1.846,0.917-2.879,0.785c-3.237-0.412-5.109-2.987-5.009-6.888c0.004-0.162-0.005-0.322-0.021-0.479
		C53.432,16.706,59.307,11,66.491,10.662c5.139-0.238,9.461,1.68,13.164,5.848c-1.07,2.904-1.589,6.063-1.435,9.343
		c0.098,2.084,1.863,3.696,3.952,3.597c2.084-0.098,3.695-1.867,3.597-3.952c-0.423-8.981,6.54-16.632,15.522-17.055
		c8.657-0.404,15.49,7.222,18.706,13.879c0.468,0.97,1.328,1.693,2.364,1.989c1.035,0.296,2.147,0.136,3.058-0.44
		c0.518-0.327,12.79-7.889,22.141,3.545c1.796,2.195,3.414,4.627,5.128,7.202c5.982,8.986,12.761,19.171,29.273,21.6
		c4.3,0.633,10.408-0.493,15.611-1.84C194.745,58.161,190.825,62.712,185.833,66.918z"/>
	<path id="XMLID_85_" class="st1" d="M209.192,239.995c-1.033-1.159-2.67-1.568-4.126-1.031c-5.875,2.162-17.043,5.32-22.006,4.591
		c-13.185-1.94-18.479-9.892-24.083-18.312c-1.739-2.613-3.538-5.316-5.569-7.799c-9.127-11.16-21.113-10.015-28.453-6.979
		c-4.871-7.973-13.211-15.269-24.021-14.76c-7.049,0.332-13.246,3.709-17.384,8.794c-4.903-4.624-10.838-6.884-17.415-6.575
		c-5.542,0.261-10.735,2.581-14.624,6.533c-2.909,2.956-4.896,6.626-5.786,10.602c-0.471-0.008-0.942-0.001-1.413,0.021
		c-12.105,0.57-21.49,10.881-20.92,22.987c0.276,5.864,2.819,11.269,7.16,15.221c3.313,3.015,7.37,4.908,11.712,5.513
		c-0.04,0.978-0.03,1.964,0.045,2.955c0.505,6.69,3.584,12.784,8.672,17.158c4.937,4.245,11.105,6.56,17.438,6.56
		c0.221,0,0.444-0.003,0.665-0.008c5.439-0.139,10.45-2.001,14.469-5.307c4.431,4.026,9.605,7.102,15.31,9.033
		c4.221,1.429,8.549,2.138,12.771,2.138c5.549,0,10.915-1.224,15.61-3.647c3.387-1.748,6.34-4.09,8.757-6.891
		c5.084,1.204,10.098,1.805,15.014,1.805c14.416-0.001,27.98-5.149,39.897-15.267c12.393-10.522,18.573-22.609,18.83-23.118
		C210.444,242.826,210.225,241.154,209.192,239.995z M185.833,261.731c-13.518,11.392-28.791,15.508-45.463,12.275
		c0.513-1.11,0.969-2.254,1.347-3.438c2.38-7.452,1.715-15.384-1.871-22.337c-2.962-5.741-7.982-9.985-14.136-11.951
		c-6.153-1.965-12.704-1.417-18.445,1.545c-4.772,2.462-8.3,6.635-9.934,11.75c-1.634,5.115-1.177,10.561,1.285,15.333
		c2.062,3.997,5.557,6.952,9.842,8.321c4.284,1.368,8.845,0.987,12.842-1.076c1.854-0.957,2.582-3.236,1.626-5.09
		c-0.957-1.855-3.236-2.582-5.09-1.626c-2.204,1.137-4.718,1.348-7.079,0.593c-2.362-0.754-4.288-2.383-5.425-4.586
		c-1.537-2.978-1.821-6.376-0.802-9.569c1.02-3.192,3.222-5.797,6.2-7.333c3.947-2.037,8.449-2.414,12.681-1.062
		c4.231,1.351,7.683,4.27,9.719,8.217c2.661,5.158,3.154,11.044,1.388,16.573c-1.765,5.529-5.579,10.039-10.737,12.7
		c-6.457,3.331-14.656,3.721-22.494,1.067c-5.647-1.912-10.675-5.195-14.786-9.576c-0.079-0.096-0.164-0.188-0.255-0.278
		c-2.694-2.928-4.986-6.332-6.784-10.135c-0.892-1.887-3.145-2.693-5.031-1.801c-1.886,0.892-2.693,3.144-1.801,5.031
		c1.601,3.385,3.536,6.506,5.757,9.327c-6.275,4.793-15.728,4.385-22.478-1.419c-3.557-3.058-5.71-7.318-6.063-11.996
		c-0.353-4.678,1.137-9.213,4.195-12.77c1.36-1.582,1.18-3.968-0.402-5.329c-1.583-1.361-3.968-1.18-5.328,0.402
		c-2.03,2.361-3.57,5.027-4.595,7.871c-2.997-0.334-5.804-1.595-8.077-3.663c-2.849-2.593-4.517-6.14-4.698-9.987
		c-0.374-7.943,5.784-14.709,13.727-15.083c0.301-0.014,0.603-0.019,0.904-0.014c1.128,5.898,5.358,10.096,11.312,10.854
		c0.492,0.063,0.983,0.094,1.47,0.094c2.523,0,4.962-0.829,6.989-2.399c2.42-1.873,3.965-4.577,4.352-7.613
		c0.264-2.07-1.201-3.962-3.271-4.225c-2.067-0.262-3.962,1.201-4.225,3.271c-0.131,1.033-0.657,1.953-1.481,2.591
		c-0.823,0.637-1.846,0.917-2.879,0.785c-3.237-0.412-5.109-2.987-5.009-6.888c0.004-0.162-0.005-0.322-0.021-0.479
		c0.624-7.089,6.498-12.795,13.682-13.133c5.139-0.238,9.461,1.68,13.164,5.848c-1.07,2.904-1.589,6.063-1.435,9.343
		c0.098,2.084,1.863,3.696,3.952,3.597c2.084-0.098,3.695-1.867,3.597-3.952c-0.423-8.981,6.54-16.632,15.522-17.055
		c8.657-0.404,15.49,7.222,18.706,13.879c0.468,0.97,1.328,1.693,2.364,1.989c1.035,0.296,2.147,0.136,3.058-0.44
		c0.518-0.327,12.79-7.889,22.141,3.545c1.796,2.195,3.414,4.627,5.128,7.202c5.982,8.986,12.761,19.171,29.273,21.6
		c4.3,0.633,10.408-0.493,15.611-1.84C194.745,252.973,190.825,257.524,185.833,261.731z"/>
	<path id="XMLID_82_" class="st1" d="M429.616,142.511c-1.033-1.159-2.67-1.568-4.126-1.031c-5.875,2.162-17.043,5.32-22.006,4.591
		c-13.185-1.94-18.479-9.892-24.083-18.312c-1.739-2.613-3.538-5.316-5.569-7.799c-9.127-11.16-21.113-10.015-28.453-6.979
		c-4.871-7.973-13.211-15.269-24.021-14.76c-7.049,0.332-13.246,3.709-17.384,8.794c-4.903-4.624-10.838-6.884-17.415-6.575
		c-5.542,0.261-10.735,2.581-14.624,6.533c-2.909,2.956-4.896,6.626-5.786,10.602c-0.471-0.007-0.942-0.001-1.413,0.021
		c-12.105,0.57-21.49,10.881-20.92,22.987c0.276,5.864,2.819,11.269,7.16,15.221c3.313,3.015,7.37,4.908,11.712,5.513
		c-0.04,0.978-0.03,1.964,0.045,2.955c0.505,6.69,3.584,12.784,8.672,17.158c4.937,4.245,11.105,6.56,17.438,6.56
		c0.221,0,0.444-0.003,0.665-0.008c5.439-0.139,10.45-2.001,14.469-5.307c4.431,4.026,9.605,7.102,15.31,9.033
		c4.221,1.429,8.549,2.138,12.771,2.138c5.549,0,10.915-1.224,15.61-3.647c3.387-1.748,6.34-4.09,8.757-6.891
		c5.084,1.205,10.098,1.805,15.014,1.805c14.416-0.001,27.98-5.149,39.897-15.267c12.393-10.523,18.573-22.609,18.83-23.118
		C430.869,145.342,430.649,143.67,429.616,142.511z M406.258,164.247c-13.518,11.392-28.791,15.508-45.463,12.275
		c0.513-1.11,0.969-2.254,1.347-3.438c2.38-7.452,1.715-15.384-1.871-22.337c-2.962-5.741-7.982-9.985-14.136-11.951
		c-6.153-1.965-12.704-1.417-18.445,1.545c-4.772,2.462-8.3,6.635-9.934,11.75c-1.634,5.115-1.177,10.561,1.285,15.333
		c2.062,3.997,5.557,6.952,9.842,8.321c4.284,1.368,8.845,0.987,12.842-1.076c1.854-0.957,2.582-3.236,1.626-5.09
		c-0.957-1.855-3.236-2.582-5.09-1.626c-2.204,1.137-4.718,1.348-7.079,0.593c-2.362-0.754-4.288-2.383-5.425-4.586
		c-1.537-2.978-1.821-6.376-0.802-9.569c1.02-3.192,3.221-5.797,6.2-7.333c3.947-2.037,8.449-2.414,12.681-1.062
		c4.231,1.351,7.683,4.27,9.719,8.217c2.661,5.158,3.154,11.044,1.388,16.573c-1.765,5.529-5.579,10.039-10.737,12.7
		c-6.457,3.331-14.656,3.721-22.494,1.067c-5.647-1.912-10.675-5.195-14.786-9.576c-0.079-0.096-0.164-0.188-0.255-0.278
		c-2.694-2.928-4.986-6.332-6.784-10.135c-0.892-1.887-3.145-2.693-5.031-1.801c-1.886,0.892-2.693,3.144-1.801,5.031
		c1.601,3.385,3.536,6.506,5.757,9.327c-6.275,4.793-15.728,4.385-22.478-1.419c-3.557-3.058-5.71-7.318-6.063-11.995
		c-0.353-4.678,1.137-9.213,4.195-12.77c1.36-1.582,1.18-3.968-0.402-5.329c-1.583-1.361-3.968-1.18-5.328,0.402
		c-2.03,2.361-3.57,5.027-4.595,7.871c-2.997-0.334-5.804-1.595-8.077-3.663c-2.849-2.593-4.517-6.14-4.698-9.987
		c-0.374-7.943,5.784-14.709,13.727-15.083c0.301-0.014,0.603-0.019,0.904-0.014c1.128,5.898,5.358,10.096,11.312,10.854
		c0.492,0.063,0.983,0.094,1.47,0.094c2.523,0,4.962-0.829,6.989-2.399c2.42-1.873,3.965-4.577,4.352-7.613
		c0.264-2.07-1.201-3.962-3.271-4.225c-2.067-0.262-3.962,1.201-4.225,3.271c-0.131,1.033-0.657,1.953-1.481,2.591
		c-0.823,0.637-1.846,0.917-2.879,0.785c-3.237-0.412-5.109-2.987-5.009-6.888c0.004-0.162-0.005-0.322-0.021-0.479
		c0.624-7.089,6.498-12.795,13.682-13.133c5.139-0.238,9.461,1.68,13.164,5.848c-1.07,2.904-1.589,6.063-1.435,9.343
		c0.098,2.084,1.863,3.696,3.952,3.597c2.084-0.098,3.695-1.867,3.597-3.952c-0.423-8.981,6.54-16.632,15.522-17.055
		c8.657-0.404,15.49,7.222,18.706,13.879c0.468,0.97,1.328,1.693,2.364,1.989c1.035,0.296,2.147,0.136,3.058-0.44
		c0.518-0.327,12.79-7.889,22.141,3.545c1.796,2.195,3.414,4.627,5.128,7.202c5.982,8.986,12.761,19.171,29.273,21.6
		c4.3,0.633,10.408-0.493,15.611-1.84C415.169,155.489,411.25,160.04,406.258,164.247z"/>
	<path id="XMLID_79_" class="st1" d="M429.616,337.324c-1.033-1.159-2.67-1.568-4.126-1.031c-5.875,2.162-17.043,5.32-22.006,4.591
		c-13.185-1.94-18.479-9.892-24.083-18.312c-1.739-2.613-3.538-5.316-5.569-7.799c-9.127-11.16-21.113-10.015-28.453-6.979
		c-4.871-7.973-13.211-15.269-24.021-14.76c-7.049,0.332-13.246,3.709-17.384,8.794c-4.903-4.624-10.838-6.884-17.415-6.575
		c-5.542,0.261-10.735,2.581-14.624,6.533c-2.909,2.956-4.896,6.626-5.786,10.602c-0.471-0.008-0.942-0.001-1.413,0.021
		c-12.105,0.57-21.49,10.881-20.92,22.987c0.276,5.864,2.819,11.269,7.16,15.221c3.313,3.015,7.37,4.908,11.712,5.513
		c-0.04,0.978-0.03,1.964,0.045,2.955c0.505,6.69,3.584,12.784,8.672,17.158c4.937,4.245,11.105,6.56,17.438,6.56
		c0.221,0,0.444-0.003,0.665-0.008c5.439-0.139,10.45-2.001,14.469-5.307c4.431,4.026,9.605,7.102,15.31,9.033
		c4.221,1.429,8.549,2.138,12.771,2.138c5.549,0,10.915-1.224,15.61-3.647c3.387-1.748,6.34-4.09,8.757-6.891
		c5.084,1.205,10.098,1.805,15.014,1.805c14.416-0.001,27.98-5.149,39.897-15.267c12.393-10.523,18.573-22.609,18.83-23.118
		C430.869,340.155,430.649,338.482,429.616,337.324z M406.258,359.059c-13.518,11.392-28.791,15.508-45.463,12.275
		c0.513-1.11,0.969-2.254,1.347-3.438c2.38-7.452,1.715-15.384-1.871-22.337c-2.962-5.741-7.982-9.985-14.136-11.951
		c-6.153-1.965-12.704-1.417-18.445,1.545c-4.772,2.462-8.3,6.635-9.934,11.75c-1.634,5.115-1.177,10.561,1.285,15.333
		c2.062,3.997,5.557,6.952,9.842,8.321c4.284,1.368,8.845,0.987,12.842-1.076c1.854-0.957,2.582-3.236,1.626-5.09
		c-0.957-1.855-3.236-2.582-5.09-1.626c-2.204,1.137-4.718,1.348-7.079,0.593c-2.362-0.754-4.288-2.383-5.425-4.586
		c-1.537-2.978-1.821-6.376-0.802-9.569c1.02-3.192,3.221-5.797,6.2-7.333c3.947-2.037,8.449-2.414,12.681-1.062
		c4.231,1.351,7.683,4.27,9.719,8.217c2.661,5.158,3.154,11.044,1.388,16.573c-1.765,5.529-5.579,10.039-10.737,12.7
		c-6.457,3.331-14.656,3.721-22.494,1.067c-5.647-1.912-10.675-5.195-14.786-9.576c-0.079-0.096-0.164-0.189-0.255-0.278
		c-2.694-2.928-4.986-6.332-6.784-10.135c-0.892-1.887-3.145-2.693-5.031-1.801c-1.886,0.892-2.693,3.144-1.801,5.031
		c1.601,3.385,3.536,6.506,5.757,9.327c-6.275,4.793-15.728,4.385-22.478-1.419c-3.557-3.058-5.71-7.318-6.063-11.995
		c-0.353-4.678,1.137-9.213,4.195-12.77c1.36-1.582,1.18-3.968-0.402-5.329c-1.583-1.361-3.968-1.18-5.328,0.402
		c-2.03,2.361-3.57,5.027-4.595,7.871c-2.997-0.334-5.804-1.595-8.077-3.663c-2.849-2.593-4.517-6.14-4.698-9.987
		c-0.374-7.943,5.784-14.709,13.727-15.083c0.301-0.014,0.603-0.019,0.904-0.014c1.128,5.898,5.358,10.096,11.312,10.854
		c0.492,0.063,0.983,0.094,1.47,0.094c2.523,0,4.962-0.829,6.989-2.399c2.42-1.873,3.965-4.577,4.352-7.613
		c0.264-2.07-1.201-3.962-3.271-4.225c-2.067-0.262-3.962,1.201-4.225,3.271c-0.131,1.033-0.657,1.953-1.481,2.591
		c-0.823,0.637-1.846,0.917-2.879,0.785c-3.237-0.412-5.109-2.987-5.009-6.888c0.004-0.162-0.005-0.322-0.021-0.479
		c0.624-7.089,6.498-12.795,13.682-13.133c5.139-0.238,9.461,1.68,13.164,5.848c-1.07,2.904-1.589,6.063-1.435,9.343
		c0.098,2.084,1.863,3.696,3.952,3.597c2.084-0.098,3.695-1.867,3.597-3.952c-0.423-8.981,6.54-16.632,15.522-17.055
		c8.657-0.404,15.49,7.222,18.706,13.879c0.468,0.97,1.328,1.693,2.364,1.989c1.035,0.296,2.147,0.136,3.058-0.44
		c0.518-0.327,12.79-7.889,22.141,3.545c1.796,2.195,3.414,4.627,5.128,7.202c5.982,8.986,12.761,19.171,29.273,21.6
		c4.3,0.633,10.408-0.493,15.611-1.84C415.169,350.301,411.25,354.852,406.258,359.059z"/>
</g>
</svg>
