<!--?xml version="1.0" encoding="utf-8"?-->
<!-- Generator: Adobe Illustrator 22.1.0, SVG Export Plug-In . SVG Version: 6.00 Build 0)  -->
<svg version="1.1" id="_x34_" xmlns="http://www.w3.org/2000/svg" xmlns:xlink="http://www.w3.org/1999/xlink" x="0px" y="0px" viewBox="0 0 800 518.6" style="enable-background:new 0 0 800 518.6;" xml:space="preserve">
<style type="text/css">
	.stblack{fill:#000000;}
	.st0{fill:#FFFFFF;}
</style>
<g>
	<path class="stblack" d="M779.7,345.4c1.5-5.9-1.2-15.5-18.6-24.2l-4.3-2c-0.6-0.4-1.1-0.8-1.7-1.1l-61.1-36.5c-3.4-24.3-10.7-55.9-16-85.6
		c-5.1-28.4-7.6-55.5-11.2-67c-0.8-2.6-1.3-7.4-1.9-8.5c-0.5-0.9-1.8-4.1-4.2-5.1c-0.6-0.2-1.2-0.5-1.8-0.8
		c-0.5-2.6-0.9-5.7-1.4-6.6c-0.5-0.9-8-4.2-10.4-5.1c-9.7-3.8-8.9-11.2-45.2-39c-17.7-13.5-29.5-22.9-37.6-28.9
		c-2.9-2.1-6.7-8-6.7-8c-2.2-1.6-8.3-1.5-11-1.7C536.8,25,314.6,13.6,271.2,13c-1.3,0-2.4,0-3.4,0c-2.7,0-6.7,0.1-8,0.3
		c-0.9,0.1-2.9,3.1-5.1,3.8c-21.8,6.9-103.4,39-176.3,69.2c-1.9,0.8-4.4-0.8-6.3-0.1C70,87.1,68.4,88.3,67,90
		c-1.4,1.7-2.1,6.3-2.6,8.5c-0.1,0.5-10.9,48.8-21.3,97.7c-16.2,76-17.5,89.5-18.1,97.3c-0.2,2.6-5.2,8.5-5.1,9.5
		c0.2,1.6,3.3,6.7,5.7,10.7c0.8,1.3,1.7,2.8,3,4.7c1.2,2.2,2.9,5.2,4.4,7.7c5,8.5,19.2,27,61.6,75.5c14,16,53.1,60,66.1,72.5
		c1.3,1.3,2.4,4.5,3.2,5.1c1,0.8,5.2,3.5,7.6,4.4c7.3,2.8,21.5-0.6,91.5,11c42.7,7.1,85.3,9.8,85.7,9.8c0.5,0.1,7.2,1.1,7.7,1.1
		c0.7,0,1-2.2,1.7-2.3c95.5-14.7,235.8-35.5,248.2-36c0.2,0,5,0.2,5.2,0.2c0,0-4.6-0.1-4.6-0.1c2,0,6.6,0,8.4-0.7
		c2-0.8,1.2-2.3,3.4-4.4c1.1-1.1,2.4-2.4,3.7-3.9c5.2-6.2,10.1-18.9,19.9-35.7c11.9-20.3,25.1-38.2,35-56.5l9.3-5.5l72.4-10.1
		C763.8,349.3,779.1,347.6,779.7,345.4z"></path>
	<path class="st0" d="M736,328.6l-72.1-43c-0.2-1.2-4.4-2.1-4.6-3.4c-0.2-1.3,4-5.6,3.7-7c-9.9-56.7-23.8-147.4-27.8-154.4
		c-5.5-9.5-97.4-77.1-97.4-77.1S271.9,30,261.9,31.4c-10,1.4-182.6,73.1-182.6,73.1s-42,188.8-40.6,198.9
		c1.4,10,116.6,139.2,125.8,146.1c9.2,6.9,174.5,24.4,174.5,24.4s243.3-37.4,251.6-36.5c6.3,0.6,40.5-62.3,60.1-98.4
		c0.5-1-1.8-4.6,0.3-4.2c0.5-1,2.3-0.7,2.8-1.6L736,328.6z"></path>
</g>
</svg>
