<?xml version="1.0" encoding="utf-8"?>
<!-- Generator: Adobe Illustrator 19.0.0, SVG Export Plug-In . SVG Version: 6.00 Build 0)  -->
<svg version="1.1" id="レイヤー_1" xmlns="http://www.w3.org/2000/svg" xmlns:xlink="http://www.w3.org/1999/xlink" x="0px"
	 y="0px" viewBox="0 0 380.851 334.043" style="enable-background:new 0 0 380.851 334.043;" xml:space="preserve">
<style type="text/css">
	.st0{fill:#F19CC1;stroke:#E4007F;stroke-width:7;stroke-linecap:round;stroke-linejoin:round;stroke-miterlimit:10;}
	.st1{fill:#F7E6E7;stroke:#E4007F;stroke-width:7;stroke-linecap:round;stroke-linejoin:round;stroke-miterlimit:10;}
	.st2{fill:#EA63A0;stroke:#E4007F;stroke-width:6;stroke-linecap:round;stroke-linejoin:round;stroke-miterlimit:10;}
	.st3{fill:#E4007F;}
	.st4{fill:none;stroke:#E4007F;stroke-width:3;stroke-linecap:round;stroke-linejoin:round;stroke-miterlimit:10;}
	.st5{fill:#FBE6EF;}
</style>
<g id="XMLID_211_">
	<path id="XMLID_227_" class="st0" d="M141.132,278.52c0,0-13.046,5.693-18.739,8.302c-5.693,2.609-18.117,8.97-21.822,9.013
		c-9.403,0.109-17.315,20.636,13.52,21.822c30.836,1.186,38.663-23.72,38.663-23.72l4.981-13.283L141.132,278.52z"/>
	<path id="XMLID_440_" class="st0" d="M230.318,286.11c0,0,13.046,7.353,19.925,9.488c6.879,2.135,23.957,3.321,23.483,12.334
		c-0.474,9.014-4.507,13.52-13.046,13.283c-8.539-0.237-26.092-2.609-36.054-9.488c-9.962-6.879-28.226-19.45-28.226-19.45
		l2.372-14.469L230.318,286.11z"/>
	<path id="XMLID_226_" class="st0" d="M230.318,286.11c0,0,13.046,7.353,19.925,9.488c6.879,2.135,23.957,3.321,23.483,12.334
		c-0.474,9.014-4.507,13.52-13.046,13.283c-8.539-0.237-26.092-2.609-36.054-9.488c-9.962-6.879-28.226-19.45-28.226-19.45
		l2.372-14.469L230.318,286.11z"/>
	<path id="XMLID_225_" class="st0" d="M156.862,280.379c0,0,1.451,0.087-1.633,3.645c-3.084,3.558-24.071,13.526-26.681,15.66
		c-2.609,2.135-10.702,5.724-4.06,14.5s17.4,8.7,27.657-0.457c3.539-3.16,19.398-18.464,21.585-26.092
		S163.741,272.077,156.862,280.379z"/>
	<path id="XMLID_224_" class="st0" d="M176,286.11c0,0-4.981,23.72,9.251,33.682c14.232,9.962,32.97,8.065,37.24,4.744
		s13.757-15.418-1.186-21.585c-14.943-6.167-19.213-8.302-19.213-14.232c0-5.93-17.79-15.181-17.79-15.181L176,286.11z"/>
	<path id="XMLID_223_" class="st0" d="M202.963,5.405c0,0,12.503-2.084,14.066,2.605c1.563,4.689,6.252,27.611,6.252,27.611
		s-21.881,6.252-24.486,2.605C196.191,34.58,196.712,21.034,202.963,5.405z"/>
	<path id="XMLID_222_" class="st1" d="M197.224,25.706c0,0-135.043,57.447-174.468,181.915c0,0-9.574,0-13.83,3.191
		c-4.255,3.191-21.277,28.723,91.489,62.766s234.043,12.766,262.766-12.766c28.723-25.532-1.064-19.149-1.064-19.149
		S303.607,76.77,223.82,31.025C223.82,31.025,206.798,40.599,197.224,25.706z"/>
	<path id="XMLID_221_" class="st1" d="M361.863,240.485c-11.245-29.687-66.915-168.68-138.043-209.46c0,0-17.021,9.574-26.596-5.319
		c0,0-135.043,57.447-174.468,181.915c-0.9,2.121-1.839,5.18-1.611,8.777c2.509,39.5,128.983,58.586,144.907,60.7
		c30.515,4.05,106.255,6.978,164.93-11.369c10.866-3.398,21.958-10.766,28.102-15.456
		C362.077,247.987,363.197,244.006,361.863,240.485z"/>
	<path id="XMLID_220_" class="st2" d="M123.784,175.567c11.967,1.208,101.581,3.321,110.959,5.405s14.587,5.21,15.629,13.545
		c1.042,8.336,1.042,34.384,0.521,40.636c-0.521,6.252-3.647,11.982-13.545,11.982s-105.236-5.731-111.487-6.773
		c-6.252-1.042-16.671-2.084-18.234-16.671c-1.563-14.587-0.521-25.527,0-31.258C108.147,186.703,110.231,174.199,123.784,175.567z"
		/>
	<path id="XMLID_219_" class="st3" d="M125.86,240.362c-6.252-1.042-16.671-2.084-18.234-16.671
		c-1.563-14.587-0.521-25.527,0-31.258c0.521-5.731,2.605-18.234,16.158-16.866c11.967,1.208,101.581,3.321,110.959,5.405
		c2.804,0.623,9.127,1.576,13.031,6.565c1.361,1.739,2.065,3.481,2.444,4.659c-15.696-0.289-42.81,1.278-73.026,14.3
		C153.238,216.82,136.286,230.483,125.86,240.362z"/>
	<path id="XMLID_218_" class="st4" d="M117.003,167.427c12.519,0.836,103.673,5.731,113.571,6.252s26.048,4.168,28.132,17.192
		c2.084,13.024-0.521,41.157,0,46.366c0.521,5.21-0.521,17.713-16.15,17.713c-15.629,0-113.05-6.773-122.428-7.815
		c-9.377-1.042-18.755-4.689-19.797-19.797c-1.042-15.108,0-42.719,0.521-48.45C101.374,173.157,107.506,166.792,117.003,167.427z"
		/>
	<path id="XMLID_217_" class="st4" d="M191.943,37.8c0,0-94.898,45.918-138.776,195.918"/>
	<path id="XMLID_216_" class="st4" d="M198.065,51.066c0,0-25.549,86.786-28.571,111.224"/>
	<path id="XMLID_215_" class="st4" d="M219.494,46.984c0,0,73.469,97.959,81.633,188.776"/>
	<line id="XMLID_214_" class="st4" x1="159.29" y1="256.168" x2="158.168" y2="273.515"/>
	<ellipse id="XMLID_213_" class="st5" cx="224.448" cy="212.49" rx="17.192" ry="17.452"/>
	<ellipse id="XMLID_212_" class="st5" cx="145.686" cy="207.568" rx="17.192" ry="17.452"/>
</g>
</svg>
