<?xml version="1.0" encoding="utf-8"?>
<!-- Generator: Adobe Illustrator 19.0.0, SVG Export Plug-In . SVG Version: 6.00 Build 0)  -->
<svg version="1.1" id="レイヤー_1" xmlns="http://www.w3.org/2000/svg" xmlns:xlink="http://www.w3.org/1999/xlink" x="0px"
	 y="0px" viewBox="0 0 493.617 457.447" style="enable-background:new 0 0 493.617 457.447;" xml:space="preserve">
<style type="text/css">
	.st0{fill:#F6E3EF;}
	.st1{fill:#58C4F1;}
	.st2{fill:#F39718;}
	.st3{fill:#77BD48;}
	.st4{fill:#EB6363;}
	.st5{fill:#FFFFFF;}
</style>
<path id="XMLID_1682_" class="st0" d="M65.597,158.052c1.603-1.115,2.693-2.799,3.051-4.718c2.292-12.29,12.78-59.694,41.754-83.331
	c29.621-24.164,77.873-29.008,88.559-29.801c1.391-0.103,2.712-0.591,3.833-1.421c4.657-3.446,18.213-12.928,31.768-17.209
	c16.731-5.283,65.162-4.403,107.429,15.85s60.759,44.028,70.445,62.52c9.226,17.614,11.262,51.206,11.435,54.357
	c0.009,0.171,0.024,0.332,0.045,0.501l0.173,1.382c0.38,3.042,2.6,5.497,5.563,6.28c6.334,1.675,17.555,6.492,25.931,20.253
	c12.328,20.253,22.014,53.714,17.611,82.773c-4.189,27.649-14.756,63.27-37.769,75.005c-2.109,1.076-3.574,3.04-3.998,5.369
	c-3.103,17.025-24.892,52.151-54.214,68.442c-18.053,10.03-34.592,0.541-51.064,15.724c-2.362,2.177-4.073,4.19-5.115,5.499
	c-3.346-1.859-6.691-3.717-10.037-5.576c-0.179,0.088-1.848,0.87-3.346,0c-0.581-0.337-0.926-0.802-1.115-1.115
	c-8.241,3.408-16.482,6.817-24.724,10.225c-1.922-1.636-4.538-2.193-6.951-1.455c-7.337,2.245-25.793,6.636-57.912,6.636
	c-43.148,0-74.848-1.761-125.921-48.431c-30.168-27.295-32.212-63.965-31.941-76.553c0.058-2.683-1.306-5.182-3.613-6.553
	c-8.965-5.328-31.145-21.244-40.175-52.501c-11.447-39.625,16.731-76.609,26.417-84.534
	C49.091,169.637,60.547,161.563,65.597,158.052z"/>
<g id="XMLID_88_">
	<g id="XMLID_1658_">
		<path id="XMLID_1660_" d="M174.216,155.764l-1.702-0.454c-0.607,0.303-1.855,0.266-3.745-0.113
			c-1.892-0.378-5.24-0.832-10.043-1.362c-4.806-0.528-9.041-1.833-12.711-3.915c-3.67-2.08-6.374-3.99-8.113-5.731
			c-1.741-1.739-3.007-3.252-3.802-4.539c-0.795-1.286-1.458-2.875-1.986-4.766c-0.53-1.89-0.7-4.009-0.511-6.355
			c0.189-2.344,0.718-4.539,1.589-6.582c0.869-2.043,1.872-3.99,3.007-5.844c1.134-1.853,2.383-3.498,3.744-4.937
			c-2.042,0.454-4.692,0.795-7.944,1.022c-3.253,0.227-5.884,0.303-7.887,0.227c-2.006-0.074-3.613-0.037-4.823,0.113
			c-0.303,0.303-0.757,0.417-1.362,0.341c-0.757-0.301-1.248-0.737-1.476-1.305c-0.227-0.567-0.36-1.777-0.397-3.631
			c-0.039-1.853-0.095-3.461-0.17-4.823c-0.076-1.362-0.17-2.723-0.284-4.086c-0.113-1.362-0.209-2.837-0.283-4.426
			c1.362-0.454,2.628-0.812,3.802-1.078c1.172-0.265,2.477-0.472,3.915-0.625c1.436-0.151,2.496-0.244,3.177-0.283
			c0.68-0.037,2.003-0.037,3.972,0c1.966,0.039,4.33,0.057,7.092,0.057c2.761,0,4.52,0,5.277,0c0.756,0,1.93-0.057,3.519-0.171
			c1.588-0.113,3.876-0.244,6.865-0.397c2.988-0.151,6.26-0.17,9.816-0.057c3.555,0.114,5.731,0.19,6.525,0.227
			c0.794,0.039,1.626,0.113,2.497,0.227c0.869,0.114,1.646,0.171,2.326,0.171c0.681,0,1.172,0.095,1.476,0.283
			c0.301,0.19,0.661,0.323,1.078,0.397c0.415,0.077,0.888,0.55,1.418,1.419c0.528,0.871,0.908,2.099,1.135,3.688
			c0.227,1.589,0.434,3.103,0.624,4.54c0.189,1.438,0.302,2.629,0.341,3.575c0.037,0.947,0,1.684-0.113,2.213
			c-0.113,0.53-0.89,1.003-2.326,1.418c-1.438,0.417-3.632,1.211-6.583,2.384c-2.95,1.174-5.22,2.326-6.808,3.461
			c-1.589,1.134-3.33,2.496-5.22,4.085c-1.892,1.589-2.951,2.553-3.178,2.894c-0.227,0.34-0.493,1.021-0.794,2.042
			c-0.303,1.022-0.587,1.873-0.851,2.553c-0.266,0.681-0.303,1.382-0.114,2.1c0.189,0.72,0.434,1.4,0.738,2.043
			c0.302,0.643,0.908,1.268,1.816,1.872c0.908,0.607,1.967,1.248,3.177,1.93c1.21,0.68,2.515,1.117,3.916,1.305
			c1.399,0.189,2.798,0.303,4.198,0.34c1.399,0.04,2.553,0.153,3.461,0.341c0.908,0.19,1.833,0.284,2.781,0.284
			c0.945,0,1.625,0.019,2.042,0.057c0.415,0.039,0.795,0.284,1.135,0.738c0.341,0.454,0.567,0.851,0.68,1.191
			c0.114,0.341,0.095,0.777-0.057,1.305c-0.152,0.531-0.283,1.345-0.397,2.44c-0.113,1.098-0.379,2.933-0.794,5.504
			c-0.417,2.573-0.777,4.351-1.078,5.333C175.502,155.386,174.972,155.84,174.216,155.764z M172.06,152.246
			c0.983-3.782,1.57-6.259,1.76-7.433c0.188-1.172,0.358-2.363,0.511-3.574c-1.968-0.227-3.972-0.358-6.015-0.397
			c-2.043-0.037-3.954-0.302-5.731-0.795c-1.779-0.491-3.481-1.153-5.107-1.986c-1.628-0.832-2.837-1.74-3.631-2.723
			c-0.795-0.982-1.401-1.89-1.816-2.723c-0.417-0.832-0.777-1.646-1.078-2.44c-0.303-0.795-0.397-1.72-0.284-2.78
			c0.113-1.059,0.397-2.117,0.851-3.178c0.454-1.058,1.078-2.173,1.872-3.347c0.795-1.172,1.57-2.061,2.327-2.667
			c0.755-0.605,1.493-1.229,2.213-1.873c0.718-0.642,1.493-1.265,2.326-1.872c0.832-0.604,1.873-1.229,3.121-1.872
			c1.248-0.642,2.628-1.342,4.142-2.1c1.512-0.756,3.064-1.436,4.653-2.043c1.588-0.604,3.064-1.21,4.426-1.816
			c-0.076-0.982-0.153-1.816-0.227-2.497c-0.076-0.68-0.17-1.909-0.283-3.688c-0.114-1.777-0.397-3.196-0.851-4.256
			c-4.616-0.378-7.68-0.585-9.192-0.625c-1.515-0.037-2.479-0.094-2.894-0.17c-0.417-0.074-1.475-0.074-3.177,0
			c-1.702,0.076-2.65,0.095-2.837,0.057c-0.189-0.037-2.326,0.076-6.412,0.341c-4.085,0.266-6.885,0.454-8.397,0.567
			c-1.515,0.113-4.369,0.057-8.568-0.17c-4.198-0.227-6.582-0.227-7.149,0c-0.568,0.227-1.401,0.323-2.497,0.283
			c-1.098-0.037-2.025,0-2.78,0.114c-0.757,0.113-1.665,0.209-2.724,0.283c0.227,1.438,0.415,3.084,0.568,4.937
			c0.151,1.854,0.17,3.253,0.057,4.198c-0.113,0.947-0.019,2.062,0.283,3.348c4.086,0,8.473-0.284,13.164-0.851
			c4.689-0.567,7.433-0.945,8.227-1.134c0.795-0.189,1.606-0.302,2.439-0.341c0.832-0.037,1.476-0.113,1.93-0.227
			c0.454-0.113,0.794-0.094,1.021,0.057c0.227,0.153,0.454,0.209,0.681,0.171c0.227-0.037,0.397,0.303,0.511,1.021
			c0.113,0.72-0.076,1.248-0.567,1.589c-0.493,0.341-1.268,1.04-2.327,2.1c-1.06,1.06-2.138,2.252-3.234,3.575
			c-1.098,1.324-2.043,2.516-2.837,3.575c-0.795,1.061-1.551,2.44-2.269,4.142c-0.72,1.702-1.192,3.31-1.418,4.823
			c-0.227,1.514-0.303,2.933-0.227,4.256c0.074,1.324,0.284,2.422,0.625,3.291c0.34,0.871,0.851,1.778,1.532,2.723
			c0.681,0.947,1.456,1.892,2.327,2.837c0.868,0.947,1.759,1.778,2.667,2.497c0.908,0.72,1.929,1.4,3.064,2.042
			c1.134,0.644,2.533,1.419,4.198,2.327c1.663,0.908,3.65,1.646,5.958,2.213c2.307,0.567,5.181,0.984,8.625,1.248
			C167.048,151.548,169.865,151.869,172.06,152.246z"/>
		<path id="XMLID_1659_" class="st1" d="M173.82,144.274c0.188-1.173,0.358-2.363,0.511-3.575c-1.968-0.227-3.972-0.358-6.015-0.397
			c-2.043-0.037-3.954-0.301-5.731-0.795c-1.779-0.49-3.481-1.153-5.107-1.986c-1.628-0.832-2.837-1.74-3.631-2.723
			c-0.795-0.982-1.401-1.89-1.816-2.723c-0.417-0.832-0.777-1.645-1.078-2.439c-0.303-0.794-0.397-1.721-0.284-2.781
			c0.113-1.058,0.397-2.117,0.851-3.178c0.454-1.058,1.078-2.172,1.872-3.347c0.794-1.172,1.57-2.061,2.327-2.666
			c0.755-0.605,1.493-1.229,2.213-1.873c0.718-0.642,1.493-1.266,2.326-1.873c0.832-0.604,1.873-1.229,3.121-1.871
			c1.248-0.642,2.628-1.342,4.142-2.1c1.512-0.756,3.064-1.437,4.653-2.044c1.588-0.604,3.064-1.209,4.426-1.816
			c-0.076-0.982-0.153-1.816-0.227-2.497c-0.076-0.68-0.17-1.909-0.283-3.687c-0.114-1.777-0.397-3.197-0.851-4.257
			c-4.616-0.377-7.68-0.585-9.192-0.624c-1.515-0.037-2.479-0.095-2.894-0.171c-0.417-0.074-1.475-0.074-3.177,0
			c-1.702,0.076-2.65,0.096-2.837,0.057c-0.189-0.037-2.326,0.076-6.412,0.34c-4.085,0.267-6.885,0.455-8.397,0.568
			c-1.515,0.113-4.369,0.056-8.568-0.171c-4.198-0.227-6.582-0.227-7.149,0c-0.568,0.227-1.401,0.323-2.497,0.284
			c-1.098-0.037-2.025,0-2.78,0.113c-0.757,0.113-1.665,0.209-2.724,0.284c0.227,1.438,0.415,3.083,0.568,4.936
			c0.151,1.854,0.17,3.254,0.057,4.199c-0.113,0.947-0.019,2.062,0.283,3.347c4.086,0,8.473-0.284,13.164-0.85
			c4.689-0.568,7.433-0.945,8.227-1.134c0.794-0.189,1.606-0.303,2.439-0.341c0.832-0.037,1.476-0.113,1.93-0.227
			c0.454-0.113,0.795-0.095,1.021,0.056c0.227,0.154,0.454,0.209,0.681,0.171c0.227-0.037,0.397,0.304,0.511,1.021
			c0.113,0.72-0.076,1.249-0.567,1.589c-0.493,0.341-1.268,1.041-2.327,2.1c-1.06,1.06-2.138,2.252-3.234,3.575
			c-1.098,1.324-2.043,2.515-2.837,3.574c-0.795,1.061-1.551,2.441-2.269,4.143c-0.72,1.702-1.192,3.31-1.418,4.823
			c-0.227,1.513-0.303,2.933-0.227,4.255c0.074,1.325,0.284,2.422,0.625,3.291c0.34,0.871,0.851,1.778,1.532,2.723
			c0.681,0.947,1.456,1.892,2.327,2.837c0.868,0.947,1.759,1.778,2.667,2.497c0.908,0.72,1.929,1.401,3.064,2.042
			c1.134,0.644,2.533,1.42,4.198,2.328c1.663,0.908,3.65,1.645,5.958,2.213c2.307,0.566,5.181,0.984,8.625,1.248
			c3.442,0.267,6.259,0.587,8.454,0.965C173.043,147.924,173.63,145.447,173.82,144.274z"/>
	</g>
	<g id="XMLID_1652_">
		<path id="XMLID_1655_" d="M309.572,153.014l-1.702-0.454c-0.607,0.303-1.855,0.266-3.745-0.113
			c-1.892-0.378-5.24-0.832-10.043-1.362c-4.806-0.528-9.041-1.833-12.711-3.915c-3.67-2.08-6.374-3.99-8.113-5.731
			c-1.741-1.739-3.007-3.252-3.802-4.539c-0.795-1.286-1.458-2.875-1.986-4.766c-0.53-1.89-0.7-4.009-0.511-6.355
			c0.189-2.344,0.718-4.539,1.589-6.582c0.869-2.043,1.872-3.99,3.007-5.844c1.134-1.853,2.383-3.498,3.744-4.937
			c-2.042,0.454-4.692,0.795-7.944,1.022c-3.253,0.227-5.884,0.303-7.887,0.227c-2.006-0.074-3.613-0.037-4.823,0.113
			c-0.303,0.303-0.757,0.417-1.362,0.341c-0.757-0.301-1.248-0.737-1.476-1.305c-0.227-0.567-0.36-1.777-0.397-3.631
			c-0.039-1.853-0.095-3.461-0.17-4.823c-0.076-1.362-0.17-2.723-0.284-4.086c-0.113-1.362-0.209-2.837-0.283-4.426
			c1.362-0.454,2.628-0.812,3.802-1.078c1.172-0.265,2.477-0.472,3.915-0.625c1.436-0.151,2.496-0.244,3.177-0.283
			c0.68-0.037,2.003-0.037,3.972,0c1.966,0.039,4.33,0.057,7.092,0.057c2.761,0,4.52,0,5.277,0c0.756,0,1.93-0.057,3.519-0.171
			c1.588-0.113,3.876-0.244,6.865-0.397c2.988-0.151,6.26-0.17,9.817-0.057c3.555,0.114,5.731,0.19,6.525,0.227
			c0.795,0.039,1.626,0.113,2.497,0.227c0.869,0.114,1.646,0.171,2.326,0.171c0.681,0,1.172,0.095,1.476,0.283
			c0.301,0.19,0.661,0.323,1.078,0.397c0.415,0.077,0.888,0.55,1.418,1.419c0.528,0.871,0.908,2.099,1.135,3.688
			c0.227,1.589,0.434,3.103,0.624,4.54c0.189,1.438,0.302,2.629,0.341,3.575c0.037,0.947,0,1.684-0.113,2.213
			c-0.113,0.53-0.89,1.003-2.326,1.418c-1.438,0.417-3.632,1.211-6.583,2.384c-2.95,1.174-5.22,2.326-6.808,3.461
			c-1.589,1.134-3.33,2.496-5.22,4.085c-1.892,1.589-2.951,2.553-3.178,2.894c-0.227,0.34-0.493,1.021-0.794,2.042
			c-0.303,1.022-0.587,1.873-0.851,2.553c-0.266,0.681-0.303,1.382-0.114,2.1c0.189,0.72,0.434,1.4,0.738,2.043
			c0.302,0.643,0.908,1.268,1.816,1.872c0.908,0.607,1.967,1.248,3.177,1.93c1.21,0.68,2.515,1.117,3.916,1.305
			c1.399,0.189,2.798,0.303,4.198,0.34c1.399,0.04,2.553,0.153,3.461,0.341c0.908,0.19,1.833,0.284,2.781,0.284
			c0.945,0,1.625,0.019,2.042,0.057c0.415,0.039,0.795,0.284,1.135,0.738c0.341,0.454,0.567,0.851,0.68,1.191
			c0.114,0.341,0.095,0.777-0.057,1.305c-0.152,0.531-0.283,1.345-0.397,2.44c-0.113,1.098-0.379,2.933-0.794,5.504
			c-0.417,2.573-0.777,4.351-1.078,5.333C310.857,152.636,310.328,153.09,309.572,153.014z M307.416,149.496
			c0.983-3.782,1.57-6.259,1.76-7.433c0.188-1.172,0.358-2.363,0.511-3.575c-1.968-0.227-3.972-0.358-6.015-0.397
			c-2.043-0.037-3.954-0.302-5.731-0.794c-1.779-0.491-3.481-1.153-5.107-1.986c-1.628-0.832-2.837-1.74-3.631-2.723
			c-0.794-0.982-1.401-1.89-1.816-2.723c-0.417-0.832-0.777-1.646-1.078-2.44c-0.303-0.795-0.397-1.72-0.284-2.78
			c0.113-1.059,0.397-2.117,0.851-3.178c0.454-1.058,1.078-2.173,1.872-3.347c0.795-1.172,1.57-2.061,2.327-2.667
			c0.755-0.605,1.493-1.229,2.213-1.873c0.718-0.642,1.493-1.265,2.326-1.872c0.832-0.604,1.873-1.229,3.121-1.872
			c1.248-0.642,2.628-1.342,4.142-2.1c1.512-0.756,3.064-1.436,4.653-2.043c1.588-0.604,3.064-1.21,4.426-1.816
			c-0.076-0.982-0.153-1.816-0.227-2.497c-0.076-0.68-0.17-1.909-0.283-3.688c-0.114-1.777-0.397-3.196-0.851-4.256
			c-4.616-0.378-7.68-0.585-9.192-0.625c-1.515-0.037-2.479-0.094-2.894-0.17c-0.417-0.074-1.475-0.074-3.177,0
			c-1.702,0.076-2.65,0.095-2.837,0.057c-0.189-0.037-2.326,0.076-6.412,0.341c-4.085,0.266-6.885,0.454-8.397,0.567
			c-1.515,0.113-4.369,0.057-8.568-0.17c-4.198-0.227-6.582-0.227-7.149,0c-0.568,0.227-1.401,0.323-2.497,0.283
			c-1.098-0.037-2.025,0-2.78,0.114c-0.757,0.113-1.665,0.209-2.724,0.283c0.227,1.438,0.415,3.084,0.568,4.937
			c0.151,1.854,0.17,3.253,0.057,4.198c-0.113,0.947-0.019,2.062,0.283,3.348c4.086,0,8.473-0.284,13.164-0.851
			c4.689-0.567,7.433-0.945,8.228-1.134c0.794-0.189,1.606-0.302,2.439-0.341c0.832-0.037,1.476-0.113,1.93-0.227
			c0.454-0.113,0.795-0.094,1.021,0.057c0.227,0.153,0.454,0.209,0.681,0.171c0.227-0.037,0.397,0.303,0.511,1.021
			c0.113,0.72-0.076,1.248-0.567,1.589c-0.493,0.341-1.268,1.04-2.327,2.1c-1.06,1.06-2.138,2.252-3.234,3.575
			c-1.098,1.324-2.043,2.516-2.837,3.575c-0.794,1.061-1.551,2.44-2.269,4.142c-0.72,1.702-1.192,3.31-1.418,4.823
			c-0.227,1.514-0.303,2.933-0.227,4.256c0.074,1.324,0.284,2.422,0.625,3.291c0.34,0.871,0.851,1.778,1.532,2.723
			c0.681,0.947,1.456,1.892,2.327,2.837c0.868,0.947,1.759,1.778,2.667,2.497c0.908,0.72,1.929,1.4,3.064,2.042
			c1.134,0.644,2.533,1.419,4.198,2.327c1.663,0.908,3.65,1.646,5.958,2.213c2.307,0.567,5.181,0.984,8.625,1.248
			C302.403,148.798,305.221,149.118,307.416,149.496z"/>
		<path id="XMLID_1654_" class="st1" d="M276.266,104.074c0.794-0.189,1.606-0.303,2.439-0.341c0.832-0.037,1.476-0.113,1.93-0.227
			c0.454-0.113,0.794-0.095,1.021,0.056c0.227,0.154,0.454,0.209,0.681,0.171c0.227-0.037,0.397,0.304,0.511,1.021
			c0.113,0.72-0.076,1.249-0.567,1.589c-0.493,0.341-1.268,1.041-2.327,2.1c-1.06,1.06-2.138,2.252-3.234,3.575
			c-1.098,1.324-2.043,2.515-2.837,3.574c-0.795,1.061-1.551,2.441-2.269,4.143c-0.72,1.702-1.192,3.31-1.418,4.823
			c-0.227,1.513-0.303,2.933-0.227,4.255c0.074,1.325,0.284,2.422,0.625,3.291c0.34,0.871,0.851,1.778,1.532,2.723
			c0.681,0.947,1.456,1.892,2.327,2.837c0.868,0.947,1.759,1.778,2.667,2.497c0.908,0.72,1.929,1.401,3.064,2.042
			c1.134,0.644,2.533,1.42,4.198,2.328c1.664,0.908,3.65,1.645,5.958,2.213c2.307,0.566,5.181,0.984,8.625,1.248
			c3.442,0.267,6.259,0.587,8.454,0.965c0.983-3.783,1.57-6.26,1.76-7.433c0.188-1.173,0.358-2.363,0.511-3.575
			c-1.968-0.227-3.972-0.358-6.015-0.397c-2.043-0.037-3.954-0.301-5.731-0.795c-1.779-0.49-3.481-1.153-5.107-1.986
			c-1.628-0.832-2.837-1.74-3.631-2.723c-0.794-0.982-1.401-1.89-1.816-2.723c-0.417-0.832-0.777-1.645-1.078-2.439
			c-0.303-0.795-0.397-1.721-0.284-2.781c0.113-1.058,0.397-2.117,0.851-3.178c0.454-1.058,1.078-2.172,1.872-3.347
			c0.794-1.172,1.57-2.061,2.327-2.666c0.755-0.605,1.493-1.229,2.213-1.873c0.718-0.642,1.493-1.266,2.326-1.873
			c0.832-0.604,1.873-1.229,3.121-1.871c1.248-0.642,2.628-1.342,4.142-2.1c1.512-0.756,3.064-1.437,4.653-2.044
			c1.588-0.604,3.064-1.209,4.426-1.816c-0.076-0.982-0.153-1.816-0.227-2.497c-0.076-0.68-0.17-1.909-0.283-3.687
			c-0.114-1.777-0.397-3.197-0.851-4.257c-4.616-0.377-7.68-0.585-9.192-0.624c-1.515-0.037-2.479-0.095-2.894-0.171
			c-0.417-0.074-1.475-0.074-3.177,0c-1.702,0.076-2.65,0.096-2.837,0.057c-0.189-0.037-2.326,0.076-6.412,0.34
			c-4.085,0.267-6.885,0.455-8.397,0.568c-1.515,0.113-4.369,0.056-8.568-0.171c-4.198-0.227-6.582-0.227-7.149,0
			c-0.568,0.227-1.401,0.323-2.497,0.284c-1.098-0.037-2.025,0-2.78,0.113c-0.757,0.113-1.665,0.209-2.724,0.284
			c0.227,1.438,0.415,3.083,0.568,4.936c0.151,1.854,0.17,3.254,0.057,4.199c-0.113,0.947-0.019,2.062,0.283,3.347
			c4.086,0,8.473-0.284,13.164-0.85C272.728,104.641,275.471,104.264,276.266,104.074z"/>
	</g>
	<g id="XMLID_1647_">
		<path id="XMLID_1649_" d="M361.209,181.011c-2.876-1.816-4.578-2.894-5.107-3.234c-0.53-0.341-1.305-0.869-2.326-1.589
			c-1.022-0.718-2.062-1.456-3.121-2.213c-1.06-0.756-1.835-1.305-2.326-1.646c-0.493-0.341-0.89-0.567-1.192-0.681
			c-0.303-0.113-0.984-0.491-2.042-1.134c-1.061-0.642-2.61-1.873-4.653-3.689c-2.043-1.816-3.424-3.177-4.142-4.085
			c-0.719-0.908-1.759-1.853-3.121-2.837c-1.362-0.982-2.592-2.06-3.688-3.234c-1.098-1.172-1.855-2.174-2.27-3.007
			c-0.417-0.832-0.643-1.663-0.68-2.497c-0.039-0.832-0.096-1.74-0.171-2.723c-0.076-0.982-0.076-2.024,0-3.121
			c0.074-1.096,0.284-2.117,0.625-3.064c0.341-0.945,0.661-1.873,0.964-2.781c0.302-0.908,0.681-1.719,1.135-2.439
			c0.454-0.718,1.265-1.967,2.439-3.745c1.172-1.777,2.307-3.271,3.405-4.482c1.096-1.21,2.08-2.327,2.951-3.348
			c0.869-1.021,1.833-1.947,2.894-2.78c1.058-0.832,2.78-2.534,5.164-5.107c2.383-2.571,4.52-4.387,6.411-5.447
			c-0.152-0.604-0.17-1.058-0.057-1.362c0.113-0.301,0.321-0.397,0.625-0.284c0.301,0.114,0.737,0.284,1.305,0.511
			c0.567,0.227,1.569,0.549,3.007,0.964c1.436,0.417,2.741,0.833,3.915,1.248c1.172,0.417,2.307,0.927,3.404,1.532
			c1.096,0.607,2.117,1.098,3.065,1.476c0.945,0.379,1.853,0.7,2.723,0.964c0.869,0.266,1.532,0.53,1.985,0.795
			c0.454,0.266,0.775,0.587,0.965,0.964c0.188,0.379,0.283,0.738,0.283,1.078c0,0.341-0.057,0.701-0.17,1.078
			c-0.113,0.379-0.511,0.567-1.192,0.567c0.074,0.681-0.36,1.305-1.305,1.873c-0.947,0.567-2.403,1.475-4.369,2.723
			c-1.968,1.248-4.125,2.78-6.469,4.596c-2.345,1.816-4.048,3.197-5.107,4.142c-1.06,0.947-2.099,1.702-3.121,2.269
			c-1.021,0.567-1.816,1.211-2.383,1.93c-0.568,0.719-0.777,1.324-0.625,1.816c0.151,0.493,0.284,1.231,0.397,2.213
			c0.113,0.984,0.415,1.854,0.908,2.61c0.491,0.757,1.229,1.646,2.213,2.667c0.982,1.021,2.043,2.119,3.178,3.291
			c1.134,1.174,2.533,2.232,4.198,3.177c1.664,0.947,3.045,1.816,4.142,2.61c1.096,0.795,2.193,1.495,3.291,2.1
			c1.096,0.606,2.345,1.231,3.745,1.872c1.399,0.644,2.384,0.984,2.951,1.021c0.567,0.04,0.964,0.247,1.192,0.625
			c0.227,0.379,0.397,0.68,0.511,0.908c0.113,0.227-0.057,0.795-0.511,1.702c-0.454,0.908-1.288,2.062-2.497,3.461
			c-1.211,1.4-2.346,2.82-3.405,4.256c-1.061,1.438-1.949,2.536-2.667,3.291c-0.72,0.757-1.362,1.438-1.93,2.043
			c-0.567,0.607-1.116,0.871-1.645,0.795c0,0.454-0.153,0.871-0.454,1.248C362.154,181.277,361.738,181.314,361.209,181.011z
			 M361.436,177.152c0.681-0.454,1.286-1.021,1.816-1.702c0.528-0.68,1.096-1.399,1.702-2.156c0.605-0.755,2.761-3.442,6.469-8.057
			c-1.741-0.756-4.181-2.1-7.32-4.029c-3.14-1.929-5.202-3.214-6.185-3.858c-0.984-0.642-1.872-1.248-2.667-1.816
			c-0.794-0.567-1.684-1.323-2.667-2.269c-0.984-0.945-1.855-1.986-2.61-3.121c-0.757-1.135-1.438-2.061-2.043-2.781
			c-0.606-0.718-1.021-1.776-1.248-3.177c-0.227-1.399-0.53-2.534-0.908-3.405c-0.379-0.869-0.323-1.512,0.171-1.929
			c0.491-0.415,0.812-0.851,0.964-1.305c0.151-0.454,2.269-2.287,6.354-5.504c4.086-3.215,7.187-5.484,9.306-6.809
			c2.117-1.322,3.536-2.269,4.256-2.837c0.718-0.567,1.682-1.192,2.893-1.872c-1.665-0.605-3.329-1.419-4.993-2.44
			c-1.665-1.021-3.5-1.796-5.504-2.326c-2.006-0.528-3.878-1.21-5.617-2.043c-0.152,1.287-0.606,2.1-1.362,2.44
			c-0.757,0.34-1.532,1.021-2.326,2.042c-0.794,1.022-2.176,2.516-4.142,4.483c-1.968,1.968-4.028,3.991-6.185,6.071
			c-2.156,2.082-4.011,4.295-5.561,6.638c-1.552,2.345-2.345,3.651-2.383,3.915c-0.04,0.266-0.284,0.871-0.738,1.816
			c-0.454,0.947-0.794,2.176-1.021,3.689c-0.227,1.514-0.323,3.14-0.284,4.88c0.037,1.741,0.415,2.97,1.135,3.688
			c0.718,0.72,1.929,1.702,3.631,2.951c1.702,1.248,3.498,2.894,5.39,4.936c1.891,2.043,3.518,3.538,4.88,4.483
			c1.362,0.947,2.911,1.985,4.652,3.121c1.74,1.135,2.818,1.949,3.235,2.44c0.415,0.493,1.152,1.078,2.213,1.759
			c1.058,0.68,2.1,1.418,3.121,2.213C358.882,176.074,360.074,176.698,361.436,177.152z"/>
		<path id="XMLID_1648_" class="st2" d="M339.761,160.724c1.891,2.044,3.518,3.538,4.88,4.483c1.362,0.947,2.911,1.986,4.652,3.121
			c1.74,1.136,2.818,1.949,3.235,2.441c0.415,0.492,1.152,1.077,2.213,1.758c1.058,0.681,2.1,1.418,3.121,2.213
			c1.021,0.795,2.213,1.418,3.574,1.873c0.681-0.455,1.286-1.021,1.816-1.702c0.528-0.681,1.096-1.4,1.702-2.157
			c0.605-0.754,2.761-3.442,6.469-8.057c-1.741-0.756-4.181-2.1-7.32-4.028c-3.14-1.929-5.202-3.215-6.185-3.859
			c-0.984-0.641-1.872-1.248-2.667-1.816c-0.795-0.566-1.684-1.322-2.667-2.269c-0.984-0.945-1.855-1.986-2.61-3.121
			c-0.757-1.136-1.438-2.061-2.043-2.781c-0.606-0.718-1.021-1.777-1.248-3.178c-0.227-1.398-0.53-2.534-0.908-3.405
			c-0.379-0.869-0.323-1.511,0.171-1.929c0.491-0.414,0.812-0.85,0.964-1.305c0.151-0.453,2.269-2.287,6.355-5.504
			c4.086-3.214,7.187-5.484,9.306-6.809c2.117-1.322,3.536-2.269,4.256-2.837c0.718-0.566,1.682-1.192,2.893-1.871
			c-1.665-0.605-3.329-1.42-4.993-2.441c-1.665-1.021-3.5-1.795-5.504-2.326c-2.006-0.528-3.878-1.209-5.617-2.042
			c-0.152,1.286-0.606,2.1-1.362,2.439c-0.757,0.34-1.532,1.021-2.326,2.042c-0.794,1.023-2.176,2.517-4.142,4.483
			c-1.968,1.968-4.028,3.991-6.185,6.072c-2.156,2.081-4.011,4.294-5.561,6.638c-1.552,2.345-2.346,3.65-2.383,3.915
			c-0.04,0.265-0.284,0.871-0.738,1.816c-0.454,0.947-0.794,2.176-1.021,3.689c-0.227,1.513-0.323,3.139-0.284,4.879
			c0.037,1.741,0.415,2.97,1.135,3.689c0.718,0.72,1.929,1.702,3.631,2.95C336.073,157.037,337.869,158.682,339.761,160.724z"/>
	</g>
	<g id="XMLID_1099_">
		<g id="XMLID_1643_">
			<polygon id="XMLID_1646_" class="st3" points="132.075,348.488 188.922,345.646 190.343,363.411 130.654,365.542 			"/>
			<path id="XMLID_1644_" d="M188.962,368.125c-1.438-0.228-2.082-0.945-1.929-2.157c-0.908,0.38-1.799,0.568-2.667,0.568
				c-0.871,0-1.571,0-2.1,0c-0.531,0-1.912-0.037-4.142-0.113c-2.232-0.074-4.312,0.019-6.241,0.284
				c-1.93,0.265-3.254,0.397-3.972,0.397c-0.72,0-2.252-0.057-4.596-0.171c-2.346-0.113-5.183-0.113-8.511,0
				c-3.329,0.113-5.713,0.113-7.149,0c-1.438-0.113-3.897,0.019-7.376,0.397c-3.481,0.379-5.447,0.492-5.901,0.34
				c-0.454-0.151-0.908-0.414-1.362-0.795c-0.379,0.607-1.021,0.607-1.929,0c-0.908-0.604-1.344-1.456-1.305-2.553
				c0.037-1.096,0.018-2.174-0.057-3.234c0.074-6.884,0.094-10.459,0.057-10.724c-0.039-0.265,0.037-0.605,0.227-1.021
				c0.189-0.416,0.397-0.663,0.625-0.739c0.227-0.074,0.774,0.267,1.646,1.021c0.868,0.757,1.305,2.082,1.305,3.973
				c0,1.892-0.077,5.372-0.227,10.44c0.454,0.455,1.021,0.568,1.702,0.34c0.982-0.074,2.003-0.206,3.064-0.397
				c1.058-0.188,2.553-0.357,4.482-0.511c1.93-0.151,3.291-0.34,4.086-0.566c0.795-0.228,2.533-0.265,5.22-0.113
				c2.685,0.152,4.216,0.282,4.596,0.397c0.378,0.113,1.57,0.132,3.575,0.056c2.003-0.074,3.706-0.093,5.106-0.056
				c1.399,0.039,2.515,0.056,3.348,0.056c0.832,0,2.78-0.113,5.845-0.34c3.064-0.228,4.823-0.245,5.277-0.057
				c0.454,0.189,1.209,0.267,2.269,0.227c1.058-0.037,1.777-0.037,2.156,0c0.378,0.04,1.512-0.32,3.405-1.077
				c0.151-1.437,0.227-2.951,0.227-4.54c0-1.587,0-3.214,0-4.879c0-1.664,0.151-3.178,0.454-4.539
				c-0.68-0.074-1.514-0.228-2.496-0.455c-0.985-0.227-2.346-0.321-4.086-0.284c-1.741,0.039-3.177,0.133-4.312,0.284
				c-1.134,0.152-2.289,0.265-3.461,0.34c-1.174,0.078-3.727,0.228-7.66,0.455c-3.935,0.227-6.621,0.379-8.058,0.453
				c-1.438,0.078-4.653,0.191-9.646,0.341c-4.994,0.152-8.494,0.397-10.497,0.737c-2.006,0.341-3.235,0.323-3.689-0.056
				s-0.757-0.832-0.908-1.362c-0.153-0.528-0.095-0.982,0.17-1.361c0.265-0.379,1.777-0.7,4.54-0.965
				c2.761-0.264,7.13-0.472,13.107-0.624c5.976-0.151,11.045-0.397,15.207-0.739c4.16-0.34,7.791-0.661,10.894-0.964
				c3.101-0.303,5.598-0.341,7.49-0.113c1.891,0.227,3.253,0.323,4.086,0.282c0.832-0.037,1.456,0,1.872,0.115
				c0.415,0.113,0.795,0.529,1.135,1.248c0.341,0.72,0.454,1.325,0.341,1.816c-0.114,0.493-0.266,1.231-0.454,2.213
				c-0.19,0.984-0.266,2.025-0.227,3.121c0.037,1.099,0.037,2.723,0,4.88c-0.039,2.155-0.039,4.067,0,5.731
				c0.037,1.665-0.19,2.97-0.681,3.915C190.342,367.993,189.718,368.351,188.962,368.125z"/>
		</g>
		<g id="XMLID_1638_">
			<path id="XMLID_1640_" d="M329.567,383.672c-0.607-0.379-1.021-0.642-1.249-0.794c-0.227-0.151-0.397-0.472-0.511-0.965
				c-0.113-0.49-0.019-1.229,0.284-2.213c-0.379-0.832-0.587-1.758-0.624-2.781c-0.039-1.021-0.076-2.343-0.113-3.971
				c-0.039-1.626-0.133-3.65-0.284-6.072c-1.741,6.583-2.799,10.668-3.178,12.256c0.832,0.757,1.136,1.362,0.908,1.816
				c-0.227,0.455-0.529,0.795-0.908,1.023c-0.379,0.227-1.344,0.34-2.894,0.34s-2.742-0.074-3.574-0.227
				c-0.833-0.151-1.532-0.227-2.1-0.227c-0.568,0-1.097,0.076-1.589,0.227c-0.493,0.152-0.984,0.189-1.476,0.113
				c-0.492-0.074-0.926-0.414-1.305-1.021c-0.379-0.605-0.473-1.096-0.282-1.476c0.188-0.377,0.435-1.021,0.737-1.929
				c-0.681-1.362-1.117-2.667-1.305-3.915c-0.189-1.249-0.436-2.723-0.737-4.426c-0.304-1.702-0.588-3.007-0.852-3.915
				c-0.265-0.908-0.436-1.362-0.511-1.362c0,4.464,0.074,7.149,0.227,8.057c0.151,0.908,0.132,1.685-0.056,2.328
				c-0.191,0.642-0.267,1.665-0.228,3.063c0.037,1.401,0.074,2.289,0.115,2.668c0.037,0.379-0.078,0.776-0.341,1.192
				c-0.265,0.416-0.737,0.737-1.418,0.964c-0.681,0.227-1.645,0.341-2.894,0.341c-1.248,0-2.723,0.056-4.426,0.169
				s-2.744,0.171-3.121,0.171c-0.38,0-1.117,0-2.214,0c-1.097,0-1.778,0.113-2.042,0.34c-0.266,0.228-0.625,0.36-1.078,0.397
				c-0.454,0.039-0.908-0.397-1.362-1.305c-0.984-0.754-1.571-1.435-1.759-2.042c-0.189-0.605-0.247-1.229-0.17-1.873
				c0.074-0.641,0.113-1.418,0.113-2.326c0-0.908,0-3.138,0-6.696c0-3.555,0.057-5.655,0.17-6.297
				c0.114-0.642,0.171-2.554,0.171-5.731c0-3.178-0.057-5.996-0.171-8.456c-0.113-2.456-0.133-5.2-0.057-8.228
				c0.074-3.024,0.151-5.295,0.227-6.809c0.074-1.511,0.207-3.121,0.397-4.823c0.188-1.702,0.358-2.816,0.511-3.347
				c0.151-0.528,0.604-1.021,1.362-1.476c0.755-0.453,1.475-0.774,2.156-0.964c0.68-0.188,2.003-0.245,3.972-0.171
				c2.723-0.074,4.558-0.227,5.504-0.453c0.945-0.228,1.929-0.472,2.951-0.739c1.021-0.264,1.719-0.34,2.098-0.227
				s0.813,0.227,1.305,0.34c0.492,0.113,1.04,0.397,1.646,0.852c1.058,2.194,1.966,4.368,2.723,6.525
				c0.756,2.155,1.626,4.255,2.61,6.299c0.982,2.042,2.079,5.825,3.291,11.348c0.832-4.994,1.361-8.682,1.589-11.066
				c0.227-2.382,0.435-4.576,0.624-6.581c0.188-2.003,0.453-3.518,0.795-4.539c0.34-1.023,0.718-1.646,1.134-1.873
				c0.414-0.227,0.945-0.245,1.589-0.057c0.642,0.191,1.078,0.341,1.305,0.455c0.227,0.113,0.661,0.113,1.305,0
				c0.642-0.113,1.285-0.321,1.929-0.624c0.642-0.303,1.589-0.529,2.837-0.681c1.249-0.151,2.061-0.301,2.441-0.455
				c2.647,0,4.613,0.04,5.9,0.115c1.286,0.076,2.137,0.189,2.554,0.34c0.414,0.152,1.266,0.265,2.553,0.34
				c0.303-0.074,0.663-0.017,1.078,0.171c0.414,0.189,0.737,0.587,0.965,1.192c0.227,0.607,0.34,1.721,0.34,3.347
				c0,1.628,0.037,3.027,0.113,4.199c0.074,1.173,0.151,4.295,0.227,9.362c0.074,5.07,0.208,8.21,0.397,9.419
				c0.189,1.212,0.303,2.404,0.341,3.575c0.037,1.173,0.056,3.007,0.056,5.504s0.019,4.16,0.057,4.992
				c0.037,0.833,0.151,3.915,0.34,9.25c0.188,5.333,0.265,8.113,0.228,8.341c-0.04,0.227-0.284,0.416-0.739,0.566
				c-0.453,0.154-1.097,0-1.929-0.453c-1.288,0-2.439,0.132-3.46,0.397c-1.023,0.265-2.082,0.436-3.178,0.511
				c-1.097,0.076-3.083,0.113-5.957,0.113c-0.531,0-1.175,0.133-1.93,0.397C330.966,383.767,330.249,383.824,329.567,383.672z
				 M345.568,378.792c0.074-5.901-0.039-9.987-0.34-12.256c-0.304-2.27-0.341-5.124-0.113-8.567
				c0.227-3.442,0.169-6.033-0.171-7.774c-0.34-1.74-0.511-5.295-0.511-10.667c0-5.371-0.096-8.491-0.284-9.363
				c-0.189-0.867-0.133-2.059,0.171-3.574c-1.212-0.605-2.649-0.945-4.312-1.021c-1.665-0.074-3.178,0-4.539,0.227
				c-1.362,0.227-2.688,0.397-3.973,0.511c-1.288,0.113-2.422,0.34-3.405,0.681c-0.984,0.34-1.608,0.379-1.873,0.113
				c-0.265-0.264-0.926-0.397-1.985-0.397c-0.304,2.422-0.568,4.672-0.794,6.752c-0.227,2.082-0.511,4.275-0.852,6.583
				c-0.34,2.309-0.737,4.464-1.192,6.468c-0.453,2.006-0.776,3.651-0.964,4.936c-0.189,1.288-0.473,2.082-0.852,2.384
				c-0.379,0.304-0.833,0.38-1.361,0.228c-0.531-0.074-0.891-0.132-1.078-0.171c-0.189-0.037-0.531-0.852-1.021-2.441
				c-0.493-1.587-1.175-4.142-2.044-7.66c-0.871-3.518-1.871-6.713-3.006-9.588c-1.136-2.875-2.422-5.788-3.859-8.738
				c-1.741,0.152-3.104,0.416-4.086,0.793c-0.984,0.38-2.495,0.568-4.539,0.568c-2.043,0-4.465,0-7.263,0
				c0,2.27-0.039,4.011-0.113,5.22c-0.076,1.212-0.227,2.877-0.454,4.994c-0.227,2.118-0.323,5.163-0.284,9.135
				c0.037,3.971,0.018,7.056-0.057,9.249c0.151,3.707,0.151,7.036,0,9.987v14.525c1.436,0.228,4.028,0.209,7.774-0.056
				c3.746-0.265,6.033-0.548,6.867-0.852c0-3.1-0.02-5.107-0.057-6.015c-0.039-0.908-0.02-1.645,0.057-2.213
				c0.074-0.566,0.056-1.569-0.057-3.007c-0.113-1.435-0.133-2.837-0.057-4.199c0.074-1.361,0.115-2.874,0.115-4.539
				c0-1.134,0.151-2.079,0.453-2.837c0.455-0.227,0.908-0.34,1.362-0.34c0.528,0.152,0.888,0.416,1.077,0.795
				c0.189,0.379,0.472,0.642,0.852,0.793c1.058,1.817,1.89,3.802,2.497,5.959c0.604,2.155,1.172,4.578,1.702,7.262
				c0.528,2.686,1.134,5.278,1.816,7.774c1.966,0.227,3.895,0.379,5.788,0.453c0.528-2.571,1.456-6.299,2.779-11.177
				c1.324-4.88,2.25-8.454,2.781-10.724c-0.076-0.529-0.057-1.021,0.056-1.476c0.115-0.453,0.379-0.795,0.795-1.021
				c0.416-0.227,0.794-0.284,1.136-0.171c0.34,0.113,0.566,0.511,0.68,1.192c0.115,0.681,0.228,1.344,0.341,1.986
				c0.113,0.644,0.227,1.722,0.34,3.234c0.113,1.515,0.245,3.367,0.397,5.562c0.151,2.194,0.341,4.407,0.568,6.638
				c0.227,2.231,0.453,4.482,0.681,6.752C337.511,379.776,342.314,379.473,345.568,378.792z"/>
			<path id="XMLID_1639_" class="st4" d="M345.114,357.428c0.227-3.442,0.17-6.033-0.17-7.774c-0.341-1.74-0.511-5.295-0.511-10.667
				c0-5.371-0.095-8.491-0.283-9.363c-0.19-0.867-0.133-2.059,0.17-3.574c-1.211-0.605-2.649-0.945-4.312-1.021
				c-1.665-0.074-3.177,0-4.539,0.227c-1.362,0.227-2.687,0.397-3.972,0.511c-1.288,0.113-2.422,0.34-3.405,0.681
				c-0.985,0.34-1.608,0.379-1.873,0.113c-0.265-0.264-0.927-0.397-1.985-0.397c-0.303,2.422-0.567,4.672-0.795,6.752
				c-0.227,2.082-0.511,4.275-0.851,6.583c-0.341,2.309-0.738,4.464-1.192,6.468c-0.454,2.006-0.777,3.651-0.964,4.936
				c-0.189,1.288-0.473,2.082-0.851,2.384c-0.379,0.304-0.833,0.38-1.362,0.228c-0.53-0.074-0.89-0.132-1.078-0.171
				c-0.19-0.037-0.531-0.852-1.022-2.441c-0.493-1.587-1.174-4.142-2.043-7.66c-0.871-3.518-1.872-6.713-3.007-9.588
				c-1.135-2.875-2.422-5.788-3.858-8.738c-1.742,0.152-3.104,0.416-4.086,0.793c-0.984,0.38-2.496,0.568-4.539,0.568
				s-4.465,0-7.263,0c0,2.27-0.039,4.011-0.113,5.22c-0.076,1.212-0.227,2.877-0.454,4.994c-0.227,2.118-0.323,5.163-0.284,9.135
				c0.037,3.971,0.018,7.056-0.057,9.249c0.151,3.707,0.151,7.036,0,9.987v14.525c1.436,0.228,4.028,0.21,7.774-0.056
				s6.033-0.548,6.866-0.852c0-3.1-0.019-5.107-0.057-6.015c-0.04-0.908-0.02-1.645,0.057-2.213
				c0.074-0.566,0.057-1.569-0.057-3.007c-0.114-1.435-0.133-2.837-0.057-4.199c0.074-1.361,0.114-2.874,0.114-4.539
				c0-1.134,0.151-2.079,0.454-2.837c0.454-0.227,0.908-0.34,1.362-0.34c0.528,0.152,0.888,0.416,1.078,0.794
				c0.189,0.379,0.472,0.642,0.851,0.793c1.059,1.817,1.891,3.802,2.497,5.959c0.604,2.155,1.172,4.578,1.702,7.262
				c0.528,2.686,1.135,5.278,1.816,7.774c1.967,0.227,3.896,0.379,5.788,0.453c0.528-2.571,1.456-6.299,2.78-11.177
				c1.323-4.88,2.25-8.454,2.78-10.724c-0.076-0.529-0.057-1.021,0.057-1.476c0.114-0.453,0.378-0.794,0.795-1.021
				c0.415-0.227,0.794-0.284,1.135-0.171c0.341,0.113,0.567,0.511,0.68,1.192c0.114,0.681,0.227,1.344,0.341,1.986
				c0.114,0.644,0.227,1.722,0.341,3.234c0.113,1.515,0.244,3.367,0.397,5.562c0.151,2.194,0.341,4.407,0.567,6.638
				c0.227,2.231,0.454,4.482,0.681,6.752c6.354,0.076,11.158-0.227,14.412-0.908c0.074-5.901-0.039-9.987-0.341-12.256
				C344.924,363.725,344.887,360.872,345.114,357.428z"/>
		</g>
		<g id="XMLID_1629_">
			<path id="XMLID_1633_" d="M371.215,383.785c-1.136-0.151-2.706-0.303-4.71-0.455c-2.005-0.151-3.557-0.358-4.652-0.624
				c-1.099-0.264-1.969-0.377-2.61-0.34c-0.644,0.039-1.249,0.169-1.817,0.397c-0.566,0.227-1.21,0.227-1.929,0
				c-0.72-0.228-1.268-0.303-1.645-0.228c-0.38,0.076-0.777-0.093-1.192-0.511c-0.417-0.414-0.531-1.134-0.34-2.155
				c0.188-1.021,0.357-1.834,0.511-2.441c0.151-0.604,0.244-1.456,0.282-2.553c0.037-1.096,0.341-2.061,0.908-2.894
				c0.568-0.832,1.4-4.426,2.497-10.78c1.097-6.356,2.458-12.614,4.086-18.781c1.626-6.165,2.497-10.686,2.61-13.562
				c0.113-2.874,0.472-4.84,1.078-5.9c0.832-0.303,1.589-0.379,2.269-0.228c0.681,0.154,1.437,0.267,2.27,0.341
				c0.455-0.227,0.908-0.341,1.362-0.341c5.447,0,8.471-0.13,9.078-0.397c0.605-0.264,1.834-0.414,3.689-0.453
				c1.853-0.037,3.366-0.037,4.539,0c1.172,0.039,1.947,0.133,2.326,0.284c0.379,0.152,0.926,0.152,1.646,0
				c0.717-0.151,1.361-0.227,1.929-0.227s1.266,0.189,2.1,0.566c1.209-0.074,1.89,0.227,2.042,0.908
				c1.816,6.508,3.555,12.711,5.22,18.612c1.663,5.9,2.723,10.366,3.178,13.39c0.453,3.027,1.116,5.94,1.986,8.738
				c0.869,2.799,1.719,5.58,2.553,8.341c0.832,2.764,1.362,4.862,1.589,6.299c0.227,1.438-0.152,2.346-1.134,2.723
				c-1.212,0.152-2.46,0.38-3.746,0.681c-1.286,0.303-2.629,0.549-4.028,0.737c-1.401,0.191-2.857,0.247-4.368,0.171
				c-0.607-0.151-1.117-0.188-1.533-0.113c-0.416,0.076-0.908,0.189-1.474,0.34c-0.568,0.152-0.948,0.113-1.136-0.113
				c-0.189-0.227-0.473-0.301-0.85-0.227c-0.38,0.076-0.777,0.056-1.192-0.057c-0.417-0.113-0.928-0.472-1.532-1.077
				c-0.154-0.832-0.191-1.437-0.113-1.817c0.074-0.377-0.096-1.021-0.512-1.929c-0.416-0.908-0.737-2.497-0.964-4.765
				c-0.227-2.27-0.549-4.312-0.965-6.128c-0.416-1.816-0.85-3.479-1.305-4.994c-3.481,0.152-6.62,0.152-9.419,0
				c-0.908,2.196-1.587,4.483-2.042,6.865c-0.453,2.384-0.891,4.863-1.305,7.433c-0.416,2.573-0.7,4.03-0.85,4.37
				c-0.154,0.34-0.228,0.947-0.228,1.816C373.371,383.577,372.651,383.937,371.215,383.785z M369.853,379.813
				c0.529-2.117,0.982-4.199,1.362-6.241c0.377-2.042,0.794-3.915,1.248-5.617c0.455-1.702,0.908-3.46,1.362-5.278
				c-1.061-0.377-1.685-0.774-1.873-1.19c-0.189-0.416-0.284-0.739-0.284-0.965s0.057-0.472,0.171-0.737s0.377-0.435,0.794-0.511
				c0.414-0.074,0.965-0.189,1.645-0.341c0.681-0.151,1.362-0.227,2.044-0.227c0.528,0.152,1.077,0.227,1.645,0.227
				c0.568,0,1.532,0.02,2.894,0.057c1.361,0.039,2.781,0,4.255-0.113c1.476-0.115,2.421-0.208,2.838-0.284
				c0.414-0.074,0.83-0.037,1.248,0.113c0.414,0.152,0.774,0.644,1.078,1.476c0.301,1.437,0.698,3.159,1.192,5.163
				c0.49,2.005,0.908,4.37,1.248,7.093c0.34,2.723,1.04,4.992,2.1,6.809c1.209,0.379,1.947,0.529,2.213,0.453
				c0.264-0.074,0.945-0.037,2.042,0.113c1.097,0.152,2.384,0.133,3.859-0.056c1.476-0.189,2.571-0.397,3.291-0.625
				c0.717-0.227,1.38-0.453,1.985-0.68c-0.529-1.968-1.002-4.143-1.418-6.525c-0.416-2.384-1.04-4.671-1.871-6.867
				c-0.833-2.193-1.628-5.2-2.384-9.022c-0.757-3.819-1.836-8.511-3.234-14.071c-1.401-5.56-2.894-11.291-4.483-17.192
				c-1.589,0.681-3.557,0.984-5.901,0.908c-0.833-0.074-1.816-0.245-2.95-0.511c-1.136-0.265-2.062-0.245-2.781,0.056
				c-0.72,0.304-1.608,0.473-2.666,0.511c-1.061,0.04-2.253,0.154-3.575,0.341c-1.325,0.189-2.82,0.056-4.483-0.397
				c-2.497,0.453-4.312,0.453-5.447,0c-0.076,0.681-0.455,1.476-1.134,2.384c0.453,3.403,0.13,7.017-0.965,10.838
				c-1.097,3.82-1.949,7.205-2.553,10.156c-0.607,2.95-1.438,7.188-2.497,12.709c-1.061,5.524-2.27,11.16-3.631,16.91
				c0.227,0.227,0.641,0.323,1.248,0.284c0.605-0.037,1.04-0.037,1.305,0c0.264,0.039,0.774,0.056,1.532,0.056
				c0.756,0,1.493,0.076,2.213,0.228c0.718,0.152,1.684,0.321,2.894,0.511C366.636,379.946,368.112,379.965,369.853,379.813z
				 M378.478,350.194c-0.681,0-1.305-0.284-1.871-0.85c-0.568-0.568-0.777-1.249-0.625-2.044c0.151-0.794,0.245-1.456,0.284-1.986
				c0.037-0.528,0.171-1.398,0.397-2.61c0.227-1.209,0.434-2.401,0.624-3.574c0.188-1.172,0.321-2.326,0.397-3.462
				c-0.303-0.68-0.113-1.398,0.568-2.155c0.756-0.605,1.663-0.718,2.723-0.341c0.681,0.228,1.134,0.341,1.362,0.341
				c0.528-0.756,1.038-1.172,1.532-1.249c0.49-0.074,1.078,0.04,1.758,0.341c0.529,1.134,0.756,2.213,0.681,3.234
				c-0.076,1.021-0.056,2.12,0.057,3.291c0.113,1.173,0.301,2.365,0.566,3.574c0.265,1.212,0.472,2.328,0.625,3.349
				c0.151,1.021,0.188,1.871,0.113,2.553c-0.228,0.757-0.644,1.175-1.249,1.249c-0.605,0.076-1.589-0.074-2.95-0.455
				c-0.607,0.227-1.381,0.397-2.326,0.511C380.199,350.023,379.31,350.12,378.478,350.194z M383.245,345.768
				c0.151-0.605,0.074-1.816-0.228-3.631c-0.303-1.816-0.265-3.631,0.115-5.447l-1.93,0.34c-0.152,0.453-0.323,1.155-0.511,2.1
				c-0.189,0.947-0.379,2.138-0.566,3.574c-0.191,1.439-0.284,2.65-0.284,3.633C380.899,346.563,382.033,346.375,383.245,345.768z"
				/>
			<path id="XMLID_1630_" class="st4" d="M404.919,364.52c-0.833-2.193-1.628-5.2-2.384-9.022
				c-0.757-3.819-1.835-8.511-3.234-14.071c-1.401-5.56-2.894-11.291-4.483-17.192c-1.588,0.681-3.557,0.984-5.901,0.908
				c-0.833-0.074-1.816-0.245-2.951-0.511c-1.135-0.265-2.062-0.245-2.78,0.056c-0.72,0.304-1.608,0.473-2.667,0.511
				c-1.061,0.04-2.252,0.154-3.575,0.341c-1.324,0.189-2.819,0.056-4.482-0.397c-2.497,0.453-4.312,0.453-5.447,0
				c-0.076,0.681-0.454,1.476-1.134,2.384c0.454,3.403,0.131,7.017-0.964,10.838c-1.098,3.82-1.949,7.205-2.553,10.156
				c-0.607,2.95-1.438,7.188-2.497,12.709c-1.061,5.524-2.269,11.16-3.631,16.91c0.227,0.227,0.642,0.323,1.248,0.284
				c0.605-0.037,1.04-0.037,1.305,0c0.265,0.039,0.775,0.056,1.532,0.056c0.756,0,1.493,0.076,2.213,0.228
				c0.718,0.152,1.683,0.321,2.894,0.511c1.209,0.189,2.685,0.208,4.426,0.056c0.528-2.117,0.982-4.199,1.362-6.241
				c0.378-2.042,0.794-3.915,1.248-5.617c0.454-1.702,0.908-3.46,1.362-5.278c-1.061-0.377-1.684-0.774-1.872-1.19
				c-0.19-0.416-0.284-0.739-0.284-0.965c0-0.227,0.057-0.472,0.171-0.737c0.113-0.265,0.377-0.434,0.794-0.511
				c0.415-0.074,0.965-0.189,1.646-0.341c0.681-0.151,1.362-0.227,2.043-0.227c0.528,0.152,1.078,0.227,1.646,0.227
				c0.567,0,1.532,0.02,2.893,0.057c1.362,0.039,2.781,0,4.256-0.113c1.476-0.115,2.421-0.208,2.837-0.284
				c0.414-0.074,0.831-0.037,1.248,0.113c0.414,0.152,0.774,0.644,1.078,1.476c0.302,1.437,0.698,3.159,1.192,5.163
				c0.491,2.005,0.908,4.37,1.248,7.093c0.34,2.723,1.039,4.992,2.099,6.809c1.21,0.379,1.947,0.529,2.214,0.453
				c0.264-0.074,0.945-0.037,2.042,0.113c1.096,0.152,2.384,0.133,3.858-0.056c1.476-0.189,2.571-0.397,3.291-0.625
				c0.718-0.227,1.38-0.453,1.985-0.68c-0.53-1.968-1.003-4.143-1.418-6.525C406.375,369.003,405.751,366.716,404.919,364.52z
				 M387.67,348.065c-0.227,0.757-0.644,1.175-1.248,1.249c-0.606,0.076-1.589-0.074-2.951-0.455
				c-0.606,0.227-1.381,0.397-2.326,0.511c-0.947,0.113-1.835,0.209-2.667,0.284c-0.681,0-1.305-0.284-1.872-0.85
				c-0.568-0.568-0.777-1.249-0.625-2.044c0.151-0.795,0.244-1.456,0.284-1.986c0.037-0.528,0.17-1.398,0.397-2.61
				c0.227-1.209,0.435-2.401,0.624-3.574c0.188-1.172,0.321-2.326,0.397-3.462c-0.303-0.68-0.113-1.398,0.567-2.155
				c0.756-0.605,1.664-0.718,2.724-0.341c0.68,0.228,1.134,0.341,1.362,0.341c0.528-0.756,1.039-1.172,1.532-1.249
				c0.491-0.074,1.078,0.04,1.759,0.341c0.528,1.134,0.756,2.213,0.681,3.234c-0.076,1.021-0.057,2.12,0.057,3.291
				c0.113,1.173,0.302,2.365,0.567,3.574c0.265,1.212,0.472,2.328,0.625,3.349C387.707,346.533,387.744,347.384,387.67,348.065z"/>
		</g>
		<g id="XMLID_1117_">
			<path id="XMLID_1119_" d="M202.467,388.664c-1.362-0.151-2.139-1.134-2.327-2.95c-0.189-1.816-0.493-4.463-0.908-7.944
				c-0.417-3.479-0.777-7.017-1.078-10.611c-0.303-3.592-0.531-6.997-0.681-10.214c-0.152-3.214-0.323-6.071-0.511-8.567
				c-0.19-2.497-0.303-5.031-0.341-7.604c-0.039-2.571-0.076-6.089-0.113-10.554c-0.039-4.463-0.039-7.281,0-8.454
				c0.037-1.172,0.264-1.91,0.68-2.213c0.415-0.301,0.718-0.492,0.909-0.568c0.188-0.074,0.774,0.076,1.759,0.455
				c2.193-0.529,4.255-0.852,6.185-0.965c1.929-0.113,3.839-0.377,5.731-0.794c1.89-0.414,3.706-0.85,5.447-1.305
				c0.755,0.38,1.265,0.833,1.532,1.362c0.265,0.529,0.131,1.002-0.397,1.418c-0.53,0.416-0.7,1.231-0.511,2.439
				c0.188,1.212,0.17,7.112-0.057,17.704c19.366,1.587,29.562,2.458,30.583,2.61c1.022,0.152,2.1,0.282,3.235,0.396
				c1.134,0.115,1.796,0.38,1.985,0.794c0.189,0.417,0.341,0.777,0.454,1.078c0.114,0.304-0.17,1.041-0.851,2.213
				c-0.68,1.175-1.231,2.951-1.645,5.333c-0.417,2.384-0.681,4.977-0.795,7.774c-0.113,2.799-0.964,5.333-2.553,7.604
				c-0.454,0.303-0.851,0.416-1.192,0.34c-0.341-0.074-0.851-0.605-1.532-1.589c-3.104-0.756-6.071-1.663-8.909-2.723
				c-2.837-1.058-5.543-2.326-8.114-3.802c-2.573-1.476-5.259-2.666-8.057-3.575c-0.454,0.531-0.607,1.175-0.454,1.93
				c0.227,3.33,0.454,6.601,0.68,9.815c0.227,3.217,0.528,6.432,0.909,9.647c0.377,3.215,0.624,5.656,0.737,7.32
				c0.113,1.665,0.151,2.536,0.113,2.61c-0.039,0.076-0.322,0.245-0.85,0.511c-0.531,0.265-1.325,0.473-2.384,0.624
				c-1.061,0.152-2.308,0.227-3.745,0.227C213.966,388.438,209.654,388.514,202.467,388.664z M218.695,384.352
				c-0.303-4.008-0.644-7.639-1.021-10.893c-0.379-3.253-0.681-6.486-0.908-9.703c-0.227-3.214-0.341-6.336-0.341-9.362
				c0.074-1.286,0.774-1.834,2.1-1.646c1.322,0.191,2.213,0.247,2.667,0.171c0.454-0.074,1.38,0.113,2.78,0.568
				c1.399,0.453,3.309,1.381,5.731,2.781c2.421,1.4,5.011,2.666,7.774,3.8c2.761,1.136,5.805,2.12,9.135,2.951
				c0.528-2.044,0.795-4.123,0.795-6.241s0.265-4.047,0.795-5.788c0.528-1.74,1.021-3.405,1.475-4.994
				c-1.287-0.453-2.573-0.737-3.858-0.85c-1.287-0.113-2.213-0.228-2.78-0.341c-0.567-0.113-3.688-0.397-9.362-0.85
				c-5.675-0.455-10.781-1.058-15.321-1.816c-0.454,0.984-0.984,1.532-1.588,1.645c-0.607,0.113-1.155-0.037-1.646-0.453
				c-0.493-0.416-0.701-1.721-0.625-3.915c0-7.717,0.018-12.104,0.057-13.165c0.037-1.058,0.171-2.874,0.397-5.447
				c-1.968,0.455-3.801,0.72-5.503,0.794c-1.702,0.076-3.217,0.227-4.54,0.455c-1.324,0.227-2.819,0.453-4.482,0.68
				c-0.227,4.011-0.341,8.114-0.341,12.313s0.188,9.533,0.567,16.002c0.378,6.468,0.681,11.329,0.909,14.582
				c0.227,3.254,0.454,6.488,0.68,9.703c0.227,3.215,0.642,6.451,1.248,9.702c4.387-0.227,7.186-0.301,8.397-0.227
				c1.21,0.076,1.967,0.076,2.27,0c0.301-0.074,0.718-0.074,1.248,0C215.932,384.882,217.03,384.732,218.695,384.352z"/>
			<path id="XMLID_1118_" class="st3" d="M243.037,344.263c-0.567-0.113-3.688-0.397-9.362-0.85
				c-5.675-0.455-10.781-1.058-15.321-1.816c-0.454,0.984-0.984,1.532-1.588,1.645c-0.607,0.113-1.155-0.037-1.646-0.453
				c-0.493-0.416-0.701-1.721-0.625-3.915c0-7.717,0.018-12.104,0.057-13.165c0.037-1.058,0.171-2.874,0.397-5.447
				c-1.968,0.455-3.801,0.72-5.503,0.795c-1.702,0.076-3.217,0.227-4.54,0.455c-1.324,0.227-2.819,0.453-4.482,0.68
				c-0.227,4.011-0.341,8.114-0.341,12.313c0,4.199,0.188,9.533,0.567,16.002c0.378,6.468,0.681,11.329,0.909,14.582
				c0.227,3.254,0.454,6.488,0.68,9.703c0.227,3.215,0.642,6.451,1.248,9.702c4.387-0.227,7.186-0.301,8.397-0.227
				c1.21,0.076,1.967,0.076,2.27,0c0.301-0.074,0.718-0.074,1.248,0c0.528,0.076,1.626-0.074,3.291-0.455
				c-0.303-4.008-0.644-7.639-1.021-10.893c-0.379-3.253-0.681-6.486-0.908-9.703c-0.227-3.214-0.341-6.336-0.341-9.362
				c0.074-1.286,0.774-1.834,2.1-1.646c1.322,0.191,2.213,0.247,2.667,0.171c0.454-0.074,1.38,0.113,2.78,0.568
				c1.399,0.453,3.309,1.381,5.731,2.781c2.421,1.4,5.011,2.666,7.774,3.8c2.761,1.136,5.805,2.12,9.135,2.951
				c0.528-2.044,0.795-4.123,0.795-6.241s0.265-4.047,0.795-5.788c0.528-1.74,1.021-3.405,1.475-4.994
				c-1.287-0.453-2.573-0.737-3.858-0.85C244.53,344.491,243.604,344.376,243.037,344.263z"/>
		</g>
		<g id="XMLID_1109_">
			<path id="XMLID_1112_" d="M58.117,383.557c-1.362-0.453-2.743-0.888-4.142-1.305c-1.401-0.414-2.553-0.982-3.461-1.701
				c-0.908-0.718-2.006-1.266-3.291-1.646c-0.379-0.605-0.53-1.248-0.454-1.929c1.286-2.117,2.231-3.555,2.837-4.312
				c0.604-0.756,1.74-2.761,3.405-6.015c1.663-3.253,3.024-6.525,4.085-9.817c1.058-3.291,1.947-6.733,2.667-10.327
				c0.718-3.592,1.153-6.392,1.305-8.397c0.151-2.005,0.171-3.195,0.057-3.575c-0.113-0.377,0.057-0.869,0.511-1.476
				c0.983-0.453,2.137-0.624,3.461-0.511c1.323,0.113,2.384,0.076,3.178-0.113c0.795-0.188,1.947-0.13,3.461,0.171
				c1.512,0.303,2.854,0.492,4.028,0.566c1.172,0.078,2.003,0.228,2.497,0.455c0.491,0.227,0.774,0.644,0.851,1.248
				c0.074,0.607,0.057,0.985-0.057,1.136c-0.114,0.152-0.36,0.227-0.738,0.227c0.528,7.416-0.209,13.77-2.213,19.065
				c-2.006,5.296-4.295,10.156-6.866,14.582c-2.573,4.426-5.296,8.795-8.171,13.108C60.688,383.672,59.706,383.861,58.117,383.557z
				 M58.685,379.699c0.68-0.982,1.265-1.833,1.759-2.553c0.491-0.718,1.078-1.513,1.759-2.384c0.68-0.869,1.569-2.27,2.667-4.199
				c1.096-1.929,2.457-4.387,4.085-7.376c1.626-2.989,2.988-6.431,4.086-10.327c1.096-3.896,1.719-6.77,1.872-8.625
				c0.151-1.853,0.113-4.483-0.113-7.888c-1.135,0-2.44-0.113-3.915-0.34c-1.476-0.228-3.575-0.265-6.299-0.113
				c-0.152,3.481-0.549,6.978-1.192,10.496c-0.643,3.518-1.475,6.792-2.496,9.816c-1.022,3.028-1.912,5.617-2.667,7.773
				c-0.757,2.157-1.646,4.143-2.667,5.959c-1.021,1.816-1.759,3.026-2.213,3.631c-0.454,0.607-1.438,1.702-2.95,3.291
				c1.512,0.757,2.911,1.381,4.198,1.871C55.885,379.228,57.246,379.549,58.685,379.699z M80.927,386.622
				c-1.287-0.301-1.855-1.096-1.702-2.384c0.151-1.285,0.227-2.419,0.227-3.405c0.074-2.95,0.245-5.974,0.511-9.078
				c0.264-3.102,0.528-6.147,0.794-9.135c0.265-2.989,0.586-6.299,0.965-9.93c0.377-3.631,0.812-6.98,1.305-10.043
				c0.491-3.065,1.002-6.525,1.532-10.384c0.528-3.858,0.982-6.015,1.362-6.468c0.378-0.455,0.908-0.889,1.589-1.305
				c0.681-0.414,1.683-0.585,3.007-0.511c1.323,0.076,2.798,0.113,4.426,0.113c1.626,0,3.422,0.057,5.391,0.171
				c1.966,0.113,3.895,0.169,5.787,0.169c1.89,0,3.195,0.228,3.915,0.681c0.718,0.455,1.172,0.984,1.362,1.589
				c0.188,0.607,0.057,1.438-0.397,2.497c-0.454,1.06-1.04,2.61-1.759,4.652c-0.72,2.044-1.231,4.199-1.532,6.469
				c-0.303,2.269-0.493,4.786-0.568,7.546c-0.076,2.762-0.303,4.652-0.68,5.673c-0.379,1.023-0.72,2.1-1.022,3.235
				c-0.303,1.134-0.454,2.422-0.454,3.858c2.117-0.605,3.876-1.021,5.277-1.248c1.4-0.228,2.647-0.663,3.745-1.305
				c1.096-0.642,1.853-1.078,2.269-1.305c0.415-0.228,0.908-0.245,1.476-0.057c0.567,0.189,0.888,0.531,0.964,1.021
				c0.074,0.493,0.528,1.078,1.362,1.76c2.571,2.799,4.18,4.635,4.823,5.504c0.642,0.871,1.039,1.55,1.192,2.042
				c0.151,0.493,0.151,0.965,0,1.418c-0.153,0.455-0.55,0.72-1.192,0.795c-0.643,0.076-2.025,0.891-4.142,2.439
				c-2.119,1.552-3.765,2.61-4.937,3.178c-1.174,0.568-2.61,1.21-4.312,1.929c-1.702,0.72-4.085,1.798-7.149,3.234
				c-3.064,1.438-6.224,2.764-9.476,3.973c-3.254,1.21-7.189,1.589-11.802,1.134c-0.53,0.908-0.871,1.418-1.022,1.533
				C81.909,386.793,81.532,386.774,80.927,386.622z M95.226,379.926c3.177-1.285,6.259-2.553,9.249-3.802
				c2.988-1.248,5.995-2.59,9.022-4.028c3.025-1.435,5.975-3.405,8.851-5.901c-1.892-2.042-3.821-3.971-5.787-5.787
				c-1.665,0.757-3.33,1.401-4.994,1.929c-1.664,0.531-3.31,0.984-4.936,1.362c-1.628,0.379-2.82,0.68-3.575,0.908
				c-0.757,0.227-1.268,0.245-1.532,0.056c-0.265-0.188-0.493-0.511-0.68-0.964c-0.19-0.455-0.019-1.646,0.511-3.575
				c0.528-1.929,1.096-4.539,1.702-7.83c0.604-3.291,1.096-7.224,1.475-11.803c0.378-4.576,1.399-8.755,3.064-12.54
				c-9.231-0.151-15.473-0.604-18.724-1.361c-1.06,6.204-1.985,12.465-2.78,18.781c-0.795,6.317-1.458,12.445-1.986,18.384
				c-0.53,5.94-0.908,11.897-1.134,17.873c1.966,0,3.725-0.037,5.277-0.113c1.549-0.074,2.893-0.227,4.028-0.453
				C93.41,380.834,94.393,380.457,95.226,379.926z"/>
			<path id="XMLID_1111_" class="st3" d="M70.884,335.469c-1.476-0.228-3.575-0.265-6.299-0.113
				c-0.152,3.481-0.549,6.978-1.192,10.496c-0.643,3.518-1.475,6.792-2.496,9.817c-1.022,3.027-1.912,5.617-2.667,7.773
				c-0.757,2.157-1.646,4.143-2.667,5.959c-1.021,1.816-1.759,3.026-2.213,3.631c-0.454,0.607-1.438,1.702-2.95,3.291
				c1.512,0.757,2.911,1.381,4.198,1.871c1.286,0.493,2.647,0.815,4.086,0.965c0.68-0.982,1.265-1.833,1.759-2.553
				c0.491-0.718,1.078-1.513,1.759-2.384c0.68-0.869,1.569-2.27,2.667-4.199c1.096-1.929,2.457-4.387,4.085-7.376
				c1.626-2.989,2.988-6.431,4.086-10.327c1.096-3.896,1.719-6.77,1.872-8.625c0.151-1.853,0.113-4.483-0.113-7.888
				C73.664,335.809,72.359,335.696,70.884,335.469z"/>
			<path id="XMLID_1110_" class="st3" d="M116.561,359.868c-1.665,0.757-3.33,1.401-4.994,1.929
				c-1.664,0.531-3.31,0.984-4.936,1.362c-1.628,0.379-2.82,0.68-3.575,0.908c-0.757,0.227-1.268,0.245-1.532,0.056
				c-0.265-0.188-0.493-0.511-0.68-0.964c-0.19-0.455-0.019-1.646,0.511-3.575c0.528-1.929,1.096-4.539,1.702-7.83
				c0.604-3.291,1.096-7.224,1.475-11.803c0.378-4.576,1.399-8.755,3.064-12.54c-9.231-0.151-15.473-0.604-18.724-1.361
				c-1.06,6.204-1.985,12.465-2.78,18.781c-0.795,6.317-1.458,12.445-1.986,18.384c-0.53,5.94-0.908,11.897-1.134,17.873
				c1.966,0,3.725-0.037,5.277-0.113c1.549-0.074,2.893-0.227,4.028-0.453c1.135-0.228,2.117-0.605,2.951-1.136
				c3.177-1.285,6.259-2.553,9.249-3.802c2.988-1.248,5.995-2.59,9.022-4.028c3.025-1.435,5.975-3.405,8.851-5.901
				C120.456,363.612,118.527,361.683,116.561,359.868z"/>
		</g>
		<g id="XMLID_1100_">
			<path id="XMLID_1104_" d="M418.763,384.466c-0.984-0.379-1.587-0.756-1.816-1.136c-0.227-0.377-0.323-0.774-0.282-1.192
				c0.037-0.414,0.093-1.285,0.169-2.61c0.074-1.322,0.171-3.592,0.284-6.808s0.132-5.335,0.057-6.356
				c-0.078-1.021-0.04-2.458,0.113-4.312c0.151-1.853,0.264-4.103,0.34-6.752c0.074-2.647,0.132-5.844,0.171-9.59
				c0.037-3.744,0.017-9.852-0.057-18.326c-0.303-0.832-0.397-1.569-0.284-2.213c0.115-0.642,0.642-1.021,1.589-1.136
				c0.945-0.113,2.421-0.434,4.426-0.964c2.005-0.529,5.068-0.832,9.193-0.908c4.123-0.074,7.47-0.151,10.043-0.227
				c2.571-0.074,5.278,0.039,8.114,0.34c2.837,0.303,5.068,0.813,6.696,1.532c1.625,0.72,3.327,1.552,5.105,2.497
				c1.777,0.947,3.366,2.346,4.767,4.199c1.4,1.854,2.287,4.067,2.668,6.638c0.377,2.573,0.566,4.351,0.566,5.333
				c0,0.984-0.34,2.573-1.021,4.767c-0.681,2.194-1.76,4.312-3.234,6.354c-1.476,2.042-2.837,3.367-4.086,3.973
				c-1.248,0.605-2.666,1.457-4.255,2.553c-1.589,1.097-3.954,1.986-7.093,2.667c-3.141,0.68-6.905,1.248-11.291,1.702
				c-0.909,0.984-1.362,1.929-1.362,2.837s0.074,1.929,0.227,3.063c0.151,1.136,0.188,2.27,0.113,3.405
				c0,1.061-0.132,2.441-0.397,4.143c-0.265,1.701-0.473,3.121-0.624,4.255c0.301,0.379,0.264,0.776-0.113,1.192
				c-0.38,0.416-0.72,0.663-1.021,0.737c-0.304,0.076-0.891,0.076-1.76,0c-0.871-0.074-2.382-0.245-4.539-0.511
				c-2.155-0.264-3.915-0.435-5.276-0.511c-0.757,0.076-1.722,0.209-2.894,0.397C420.824,383.691,419.746,384.012,418.763,384.466z
				 M434.424,380.267c0.074-0.982,0.245-2.213,0.512-3.689c0.264-1.476,0.397-2.514,0.397-3.121c0-0.605-0.154-1.513-0.455-2.723
				c-0.303-1.21-0.265-2.27,0.113-3.178l0.227-4.086c-0.529-0.908-0.473-1.587,0.171-2.042c0.642-0.455,1.229-0.681,1.76-0.681
				c0.528,0,0.832,0.113,0.908,0.341c0.604-0.228,1.418-0.321,2.439-0.284c1.021,0.039,3.631-0.321,7.83-1.078
				c4.199-0.756,7.224-1.758,9.078-3.007c1.854-1.248,3.235-2.307,4.143-3.178c0.908-0.867,1.853-1.871,2.837-3.007
				c0.982-1.134,1.719-2.685,2.213-4.652c0.492-1.966,0.585-4.103,0.284-6.412c-0.304-2.306-0.587-3.782-0.852-4.426
				c-0.265-0.642-0.7-1.398-1.305-2.27c-0.605-0.867-1.286-1.569-2.042-2.098c-2.042-1.437-3.557-2.421-4.539-2.951
				c-0.984-0.528-1.816-0.85-2.497-0.964c-0.681-0.115-2.233-0.397-4.652-0.852c-2.422-0.453-4.919-0.642-7.49-0.568
				c-2.573,0.078-5.203,0.04-7.888-0.113c-2.686-0.151-5.239-0.037-7.66,0.341c-2.422,0.379-4.806,1.021-7.149,1.929
				c0.453,0.453,0.414,0.908-0.113,1.361c0.604,8.778,0.774,16.098,0.511,21.959c-0.267,5.864-0.436,9.742-0.511,11.632
				c-0.076,1.892-0.133,3.291-0.171,4.199c-0.039,0.908-0.02,2.062,0.057,3.46c0.074,1.401,0.074,2.384,0,2.951
				c-0.078,0.568-0.154,1.344-0.228,2.326c-0.076,0.984-0.039,2.422,0.113,4.312c2.421-0.151,4.407-0.188,5.959-0.113
				c1.549,0.076,2.514,0.21,2.894,0.397c0.377,0.189,0.964,0.303,1.758,0.34C431.871,380.362,432.987,380.343,434.424,380.267z
				 M438.283,352.917c-0.833-0.301-1.418-0.832-1.76-1.589c-0.34-0.754-0.549-1.435-0.624-2.042
				c-0.379-0.605-0.566-1.456-0.566-2.553c0-1.097,0.074-2.287,0.227-3.575c0.151-1.285,0.264-2.384,0.34-3.291
				c0.074-0.908-0.019-1.626-0.284-2.155c-0.265-0.529-0.076-0.965,0.568-1.305c0.642-0.341,1.153-0.492,1.532-0.455
				c0.379,0.039,1.002-0.074,1.873-0.34c0.869-0.264,1.777-0.435,2.723-0.511c0.945-0.074,2.25-0.037,3.915,0.113
				c0.908,0.152,1.74,0.34,2.497,0.566c0.756,0.228,1.513,0.588,2.27,1.078c0.754,0.493,1.361,1.041,1.816,1.646
				c0.377,0.453,0.528,1.021,0.453,1.702c-0.379,1.968-0.947,3.518-1.702,4.652c-0.757,1.134-1.494,1.949-2.213,2.439
				c-0.72,0.493-1.476,0.965-2.269,1.418c-0.795,0.455-1.685,0.833-2.668,1.136c-0.984,0.303-2.536,0.453-4.652,0.453
				c0.604,1.134,0.737,1.873,0.397,2.213C439.815,352.862,439.191,352.993,438.283,352.917z M442.935,347.131
				c1.136-0.303,2.081-0.663,2.838-1.078c0.754-0.416,1.435-1.078,2.042-1.986c0.681-0.681,1.134-1.456,1.361-2.326
				c0.228-0.869,0.341-1.684,0.341-2.439c-0.38-0.379-1.192-0.7-2.439-0.965c-1.249-0.264-3.122-0.321-5.617-0.171
				c-0.38,0.531-1.136,0.947-2.27,1.249c-0.152,1.286-0.189,3.631-0.113,7.036C439.683,346.979,440.968,347.207,442.935,347.131z"/>
			<path id="XMLID_1101_" class="st4" d="M466.029,334.504c-0.266-0.642-0.7-1.398-1.305-2.27c-0.606-0.867-1.287-1.569-2.042-2.098
				c-2.043-1.437-3.557-2.421-4.54-2.951c-0.984-0.528-1.816-0.85-2.497-0.964c-0.68-0.115-2.232-0.397-4.652-0.852
				c-2.422-0.453-4.919-0.642-7.49-0.568c-2.573,0.078-5.202,0.04-7.887-0.113c-2.686-0.151-5.24-0.037-7.66,0.341
				c-2.422,0.379-4.806,1.021-7.15,1.929c0.454,0.453,0.415,0.908-0.113,1.361c0.604,8.778,0.775,16.098,0.511,21.959
				c-0.266,5.864-0.436,9.742-0.511,11.632c-0.076,1.892-0.133,3.291-0.171,4.199c-0.039,0.908-0.019,2.062,0.057,3.46
				c0.074,1.401,0.074,2.384,0,2.951c-0.077,0.568-0.153,1.344-0.227,2.326c-0.076,0.984-0.039,2.422,0.113,4.312
				c2.421-0.151,4.406-0.188,5.958-0.113c1.549,0.076,2.515,0.209,2.894,0.397c0.378,0.189,0.964,0.303,1.759,0.34
				c0.794,0.039,1.909,0.02,3.347-0.056c0.074-0.982,0.245-2.213,0.511-3.689c0.264-1.476,0.397-2.514,0.397-3.121
				c0-0.605-0.153-1.513-0.454-2.723c-0.303-1.21-0.266-2.27,0.113-3.178l0.227-4.086c-0.53-0.908-0.473-1.587,0.171-2.042
				c0.642-0.455,1.228-0.681,1.759-0.681c0.528,0,0.832,0.113,0.908,0.341c0.604-0.228,1.418-0.321,2.439-0.284
				c1.022,0.039,3.632-0.321,7.831-1.078c4.198-0.756,7.224-1.758,9.078-3.007c1.854-1.248,3.235-2.307,4.142-3.178
				c0.908-0.867,1.853-1.871,2.837-3.007c0.982-1.134,1.719-2.685,2.213-4.652c0.491-1.966,0.585-4.103,0.283-6.412
				C466.577,336.624,466.293,335.148,466.029,334.504z M451.56,344.32c-0.757,1.134-1.495,1.949-2.213,2.439
				c-0.72,0.493-1.476,0.965-2.269,1.418c-0.795,0.455-1.684,0.833-2.668,1.136c-0.984,0.303-2.536,0.453-4.652,0.453
				c0.604,1.134,0.737,1.873,0.397,2.213c-0.341,0.341-0.965,0.473-1.873,0.397c-0.833-0.301-1.418-0.832-1.759-1.589
				c-0.34-0.754-0.549-1.435-0.624-2.042c-0.379-0.605-0.567-1.456-0.567-2.553s0.074-2.287,0.227-3.575
				c0.151-1.285,0.265-2.384,0.341-3.291c0.074-0.908-0.019-1.626-0.284-2.155c-0.266-0.529-0.076-0.965,0.568-1.305
				c0.642-0.341,1.152-0.492,1.532-0.455c0.378,0.039,1.002-0.074,1.872-0.34c0.869-0.264,1.777-0.435,2.724-0.511
				c0.945-0.074,2.25-0.037,3.915,0.113c0.908,0.152,1.74,0.34,2.496,0.566c0.756,0.228,1.513,0.588,2.27,1.078
				c0.755,0.493,1.362,1.041,1.816,1.646c0.378,0.453,0.528,1.021,0.454,1.702C452.883,341.636,452.316,343.186,451.56,344.32z"/>
		</g>
	</g>
	<path id="XMLID_1098_" class="st5" d="M120.314,211.891c0.707,0.98,2.367,3.212,4.979,6.695c5.658-2.614,9.795-4.898,12.407-6.858
		c-1.089-1.522-2.939-4.217-5.551-8.081c-2.612-3.862-4.326-6.174-5.142-6.938c-0.816-0.759-1.77-1.25-2.856-1.469
		c-0.436,0.219-1.689,1.116-3.756,2.694c-2.068,1.578-3.591,2.855-4.571,3.835c1.196,2.505,2.066,4.572,2.612,6.203
		C118.98,209.605,119.605,210.911,120.314,211.891z"/>
	<g id="XMLID_943_">
		<path id="XMLID_1095_" d="M231.383,180.073c-2.876-1.816-4.578-2.894-5.107-3.234c-0.53-0.341-1.305-0.869-2.326-1.589
			c-1.022-0.718-2.062-1.456-3.121-2.213c-1.06-0.756-1.835-1.305-2.326-1.646c-0.493-0.341-0.89-0.567-1.192-0.681
			c-0.303-0.113-0.984-0.491-2.042-1.134c-1.061-0.642-2.61-1.873-4.653-3.689s-3.424-3.177-4.142-4.085
			c-0.719-0.908-1.759-1.853-3.121-2.837c-1.362-0.982-2.592-2.06-3.688-3.234c-1.098-1.172-1.855-2.174-2.27-3.007
			c-0.417-0.832-0.643-1.663-0.68-2.497c-0.039-0.832-0.096-1.74-0.171-2.723c-0.076-0.982-0.076-2.024,0-3.121
			c0.074-1.096,0.284-2.117,0.625-3.064c0.341-0.945,0.661-1.873,0.964-2.781c0.302-0.908,0.681-1.719,1.135-2.439
			c0.454-0.718,1.265-1.967,2.439-3.745c1.172-1.777,2.307-3.271,3.405-4.482c1.096-1.21,2.08-2.327,2.951-3.348
			c0.869-1.021,1.833-1.947,2.894-2.78c1.058-0.832,2.78-2.534,5.164-5.107c2.383-2.571,4.52-4.387,6.411-5.447
			c-0.152-0.604-0.17-1.058-0.057-1.362c0.113-0.301,0.321-0.397,0.625-0.284c0.301,0.114,0.737,0.284,1.305,0.511
			c0.567,0.227,1.569,0.549,3.007,0.964c1.436,0.417,2.741,0.833,3.915,1.248c1.172,0.417,2.307,0.927,3.404,1.532
			c1.096,0.607,2.117,1.098,3.065,1.476c0.945,0.379,1.853,0.7,2.723,0.964c0.869,0.266,1.532,0.53,1.985,0.795
			c0.454,0.266,0.775,0.587,0.965,0.964c0.188,0.379,0.283,0.738,0.283,1.078c0,0.341-0.057,0.701-0.17,1.078
			c-0.113,0.379-0.511,0.567-1.192,0.567c0.074,0.681-0.36,1.305-1.305,1.873c-0.947,0.567-2.403,1.475-4.369,2.723
			c-1.968,1.248-4.125,2.78-6.469,4.596c-2.346,1.816-4.048,3.197-5.107,4.142c-1.06,0.947-2.099,1.702-3.121,2.269
			c-1.021,0.567-1.816,1.211-2.383,1.93c-0.568,0.719-0.777,1.324-0.625,1.816c0.151,0.493,0.284,1.231,0.397,2.213
			c0.113,0.984,0.415,1.854,0.908,2.61c0.491,0.757,1.229,1.646,2.213,2.667c0.982,1.021,2.043,2.119,3.178,3.291
			c1.134,1.174,2.533,2.232,4.198,3.177c1.663,0.947,3.045,1.816,4.142,2.61c1.096,0.795,2.193,1.495,3.291,2.1
			c1.096,0.606,2.345,1.231,3.745,1.872c1.399,0.644,2.384,0.984,2.951,1.021c0.567,0.04,0.964,0.247,1.192,0.625
			c0.227,0.379,0.397,0.68,0.511,0.908c0.113,0.227-0.057,0.795-0.511,1.702c-0.454,0.908-1.288,2.062-2.497,3.461
			c-1.211,1.4-2.346,2.82-3.405,4.256c-1.061,1.438-1.949,2.536-2.667,3.291c-0.72,0.757-1.362,1.439-1.93,2.043
			c-0.567,0.607-1.117,0.871-1.645,0.795c0,0.454-0.153,0.871-0.454,1.248C232.329,180.339,231.912,180.377,231.383,180.073z
			 M231.61,176.215c0.681-0.454,1.286-1.021,1.816-1.702c0.528-0.68,1.096-1.399,1.702-2.156c0.605-0.755,2.761-3.442,6.469-8.057
			c-1.741-0.756-4.181-2.1-7.32-4.029c-3.14-1.929-5.202-3.214-6.185-3.858c-0.984-0.642-1.872-1.248-2.667-1.816
			c-0.795-0.567-1.684-1.323-2.667-2.269c-0.984-0.945-1.855-1.986-2.61-3.121c-0.757-1.135-1.438-2.061-2.043-2.781
			c-0.606-0.718-1.021-1.776-1.248-3.177c-0.227-1.399-0.53-2.534-0.908-3.405c-0.379-0.869-0.323-1.512,0.171-1.929
			c0.491-0.415,0.812-0.851,0.964-1.305c0.151-0.454,2.269-2.287,6.355-5.504c4.086-3.215,7.187-5.484,9.306-6.809
			c2.117-1.322,3.536-2.269,4.256-2.837c0.718-0.567,1.682-1.192,2.893-1.872c-1.665-0.605-3.329-1.419-4.993-2.44
			c-1.665-1.021-3.5-1.796-5.504-2.326c-2.006-0.528-3.878-1.21-5.617-2.043c-0.152,1.287-0.606,2.1-1.362,2.44
			c-0.757,0.34-1.532,1.021-2.326,2.042c-0.795,1.022-2.176,2.516-4.142,4.483c-1.968,1.968-4.028,3.991-6.185,6.071
			c-2.156,2.082-4.011,4.295-5.561,6.638c-1.552,2.346-2.346,3.651-2.383,3.915c-0.04,0.266-0.284,0.871-0.738,1.816
			c-0.454,0.947-0.795,2.176-1.021,3.689c-0.227,1.514-0.323,3.14-0.284,4.88c0.037,1.741,0.415,2.97,1.135,3.688
			c0.718,0.72,1.929,1.702,3.631,2.951c1.702,1.248,3.498,2.894,5.39,4.936c1.891,2.043,3.518,3.538,4.88,4.483
			c1.362,0.947,2.911,1.985,4.652,3.121c1.74,1.135,2.818,1.949,3.235,2.44c0.415,0.493,1.152,1.078,2.213,1.759
			c1.058,0.68,2.1,1.418,3.121,2.213C229.057,175.137,230.248,175.761,231.61,176.215z"/>
		<path id="XMLID_945_" class="st2" d="M204.545,154.851c1.702,1.249,3.498,2.894,5.39,4.936c1.891,2.044,3.518,3.538,4.88,4.483
			c1.362,0.947,2.911,1.986,4.652,3.121c1.74,1.136,2.818,1.949,3.235,2.441c0.415,0.492,1.152,1.077,2.213,1.758
			c1.058,0.681,2.1,1.418,3.121,2.213c1.021,0.795,2.213,1.418,3.575,1.873c0.681-0.455,1.286-1.021,1.816-1.702
			c0.528-0.681,1.096-1.4,1.702-2.157c0.605-0.754,2.761-3.442,6.469-8.057c-1.741-0.756-4.181-2.1-7.32-4.028
			c-3.14-1.929-5.202-3.215-6.185-3.859c-0.984-0.641-1.872-1.248-2.667-1.816c-0.795-0.566-1.684-1.322-2.667-2.269
			c-0.984-0.945-1.855-1.986-2.61-3.121c-0.757-1.136-1.438-2.061-2.043-2.781c-0.606-0.718-1.021-1.777-1.248-3.178
			c-0.227-1.398-0.53-2.534-0.908-3.405c-0.379-0.869-0.323-1.511,0.171-1.929c0.491-0.414,0.812-0.85,0.964-1.305
			c0.151-0.453,2.269-2.287,6.355-5.504c4.086-3.214,7.187-5.484,9.306-6.809c2.117-1.322,3.536-2.269,4.256-2.837
			c0.718-0.566,1.682-1.192,2.893-1.871c-1.665-0.605-3.329-1.42-4.993-2.441c-1.665-1.021-3.5-1.795-5.504-2.326
			c-2.006-0.528-3.878-1.209-5.617-2.042c-0.152,1.286-0.606,2.1-1.362,2.439c-0.757,0.34-1.532,1.021-2.326,2.042
			c-0.795,1.023-2.176,2.517-4.142,4.483c-1.968,1.968-4.028,3.991-6.185,6.072c-2.156,2.081-4.011,4.294-5.561,6.638
			c-1.552,2.345-2.346,3.65-2.383,3.915c-0.04,0.265-0.284,0.871-0.738,1.816c-0.454,0.947-0.794,2.176-1.021,3.689
			c-0.227,1.513-0.323,3.139-0.284,4.879c0.037,1.741,0.415,2.97,1.135,3.689C201.632,152.621,202.843,153.603,204.545,154.851z"/>
	</g>
	<g id="XMLID_96_">
		<g id="XMLID_176_">
			<path id="XMLID_802_" d="M118.6,285.025c-0.98-0.327-2.016-0.923-3.102-1.796c-1.089-0.869-2.016-1.632-2.776-2.286
				c-0.762-0.653-1.824-1.576-3.183-2.775c-1.362-1.197-2.395-2.066-3.102-2.612c-0.709-0.544-1.55-1.087-2.53-1.633
				c-0.979-0.544-1.607-0.979-1.877-1.306c-0.272-0.326-0.518-0.979-0.734-1.959c-0.22-0.98-0.22-1.657,0-2.04
				c0.217-0.381,0.544-0.571,0.979-0.571c0.434,0,0.924-0.054,1.47-0.163c4.025-3.266,6.42-5.495,7.182-6.693
				c0.76-1.197,1.388-1.931,1.877-2.204c0.49-0.27,0.653-1.114,0.49-2.53c-0.163-1.413-0.571-2.637-1.224-3.673
				c-0.653-1.032-1.443-1.931-2.367-2.693c-0.925-0.76-1.742-1.332-2.449-1.714c-0.709-0.379-1.606-0.653-2.693-0.816
				c-1.089-0.163-4.3-0.081-9.631,0.244c0,8.709-0.273,14.639-0.817,17.794c-0.546,3.158-1.28,5.933-2.203,8.325
				c-0.926,2.395-1.959,4.138-3.102,5.225c-1.143,1.088-2.367,2.096-3.673,3.019c-1.306,0.926-2.558,1.498-3.755,1.714
				c-1.199,0.22-2.832,0.327-4.898,0.327c-2.068,0-4.545-0.381-7.428-1.143c-2.884-0.76-5.795-1.768-8.734-3.02
				c-2.938-1.25-5.305-2.992-7.101-5.224c-1.796-2.23-3.346-4.49-4.653-6.775c-1.306-2.286-2.203-4.596-2.693-6.938
				c-0.49-2.339-0.681-4.842-0.571-7.509c0.107-2.666,0.625-5.197,1.551-7.591c0.923-2.393,2.203-4.707,3.836-6.939
				c1.632-2.229,2.939-3.971,3.918-5.223c0.98-1.25,2.066-2.339,3.265-3.265c1.196-0.923,2.584-1.605,4.163-2.04
				c1.576-0.434,2.964-0.924,4.163-1.47l-1.306-4.245c-1.96,0.11-3.538,0.273-4.735,0.49c-1.199,0.22-2.939,0.599-5.223,1.143
				c-2.286,0.546-3.836,1.117-4.653,1.714c-0.816,0.599-1.443,0.79-1.877,0.571c-0.436-0.218-0.872-0.653-1.306-1.306
				c-0.436-0.653-0.681-1.524-0.734-2.613c-0.056-1.086-0.109-1.848-0.163-2.285c-0.057-0.434-0.057-1.768,0-4
				c0.054-2.229,0.244-4.543,0.571-6.938c-0.546-0.869-0.791-1.604-0.736-2.203c0.054-0.597,0.19-1.115,0.409-1.551
				c0.217-0.433,0.653-0.816,1.306-1.143c0.653-0.326,1.387-0.625,2.204-0.897c0.816-0.27,1.685-0.462,2.612-0.571
				c0.923-0.107,4.706,0.056,11.345,0.49l0.163-7.183c-0.653-2.066-0.734-3.346-0.244-3.836c0.49-0.49,1.224-0.679,2.203-0.571
				c1.74-0.217,4.026-0.49,6.856-0.816c2.829-0.327,5.85-0.597,9.061-0.816c3.209-0.218,5.033-0.353,5.469-0.409
				c0.433-0.054,1.224,0.272,2.366,0.98c1.143,0.709,1.877,1.443,2.204,2.203c0.327,0.762,0.597,1.689,0.816,2.776
				c0.218,1.088,0.246,2.015,0.081,2.775c-0.163,0.762-0.081,1.526,0.246,2.286c1.306-0.76,2.421-1.169,3.346-1.224
				c0.923-0.054,1.74-0.107,2.449-0.164c0.707-0.054,1.659-0.189,2.857-0.407c0.653,0.109,1.441,0.383,2.366,0.816
				c0.924,0.436,1.577,1.008,1.96,1.714c0.379,0.709,0.571,1.578,0.571,2.612c0,1.036,0.081,1.987,0.244,2.857
				c0.163,0.872,0.217,2.477,0.163,4.815c-0.056,2.342,0.054,4.354,0.327,6.041c0.27,1.689-0.49,2.668-2.286,2.939
				c-1.796,0.272-3.076,0.3-3.836,0.081c-1.415,0-2.939,0.056-4.571,0.163c-1.633,0.109-2.613,0.163-2.939,0.163v1.796
				c1.959-0.326,3.318-0.571,4.081-0.734c0.76-0.163,1.359-0.327,1.796-0.49c0.434-0.163,1.494-0.163,3.183,0
				c1.686,0.163,3.02,0.273,4,0.327c0.979,0.056,2.04,0.191,3.183,0.407c1.143,0.22,2.502,0.409,4.081,0.571
				c1.577,0.164,3.972,0.791,7.183,1.877c3.209,1.089,5.849,2.367,7.918,3.836c2.066,1.47,3.943,2.857,5.633,4.163
				c1.685,1.306,2.938,3.02,3.755,5.142c0.815,2.123,1.549,4.437,2.203,6.938c0.652,2.506,0.897,4.898,0.734,7.183
				c-0.163,2.286-0.681,4.763-1.551,7.428c-0.873,2.668-1.795,5.386-2.775,8.162c-0.98,2.775-2.558,5.305-4.735,7.591
				c-0.873,0.327-1.498,0.873-1.877,1.633c-0.382,0.762-2.286,2.178-5.713,4.245C121.456,283.666,119.36,284.809,118.6,285.025z
				 M117.62,279.149c5.331-1.849,8.432-3.429,9.305-4.735c0.869-1.306,1.768-2.393,2.693-3.265c0.924-0.871,1.797-2.094,2.612-3.673
				c0.817-1.576,1.496-3.237,2.043-4.979c0.542-1.74,1.06-3.645,1.549-5.713c0.491-2.066,0.788-3.755,0.9-5.061
				c0.107-1.306,0.025-2.857-0.246-4.653c-0.272-1.796-0.627-3.453-1.06-4.979c-0.438-1.522-1.201-2.91-2.286-4.162
				c-1.089-1.25-2.069-2.149-2.94-2.694c-0.871-0.544-2.64-1.713-5.305-3.509c-2.669-1.796-5.77-2.992-9.305-3.592
				c-3.538-0.597-6.395-0.952-8.571-1.061c-2.179-0.107-6.693,0.273-13.55,1.143c-0.546,0-1.469-0.327-2.775-0.98
				c-0.546-1.195-0.816-2.338-0.816-3.428c0-1.087-0.083-2.094-0.246-3.02c-0.163-0.923-0.383-1.739-0.653-2.449
				c-0.272-0.707-0.137-1.25,0.409-1.632c0.544-0.381,1.632-0.462,3.265-0.246c3.482-0.433,6.856-0.544,10.121-0.326
				c-0.219-0.544-0.354-1.633-0.407-3.266c-0.057-1.632-0.029-4.408,0.081-8.325c-1.199,0.436-2.041,0.571-2.53,0.409
				c-0.49-0.164-1.607-0.054-3.347,0.326c-1.742,0.383-3.02,0.817-3.836,1.306c-0.816,0.49-1.632,0.49-2.449,0
				c-0.816-0.489-1.306-1.576-1.469-3.265c-0.163-1.685-0.273-2.963-0.327-3.836c-0.056-0.869-0.028-2.012,0.083-3.428l-0.817-0.98
				c-1.525,0.546-3.265,0.762-5.224,0.653c-1.959-0.107-4.681-0.054-8.162,0.163c-3.485,0.22-5.551,0.383-6.203,0.49
				c0,0.327-0.056,1.877-0.163,4.652c-0.11,2.776-0.138,4.437-0.083,4.979c0.054,0.547,0,1.008-0.163,1.388
				c-0.163,0.382-0.49,0.653-0.979,0.816c-0.49,0.163-1.416,0.191-2.776,0.081c-1.362-0.107-2.367-0.107-3.02,0
				c-0.653,0.109-2.096,0.109-4.326,0c-2.231-0.107-4.055,0-5.468,0.327l-0.49,11.917c1.739-0.653,3.755-1.143,6.041-1.47
				c2.285-0.326,4.081-0.679,5.386-1.06c1.306-0.381,2.883-0.625,4.735-0.736c1.306,1.416,2.012,2.776,2.122,4.082
				c0.107,1.306,0.163,2.26,0.163,2.857c0,0.599-0.028,1.142-0.081,1.632c-0.056,0.49-0.028,1.036,0.081,1.633
				c0.107,0.599,0.299,1.334,0.571,2.203c0.271,0.873-0.081,1.444-1.06,1.714c-0.98,0.273-2.286,0.653-3.919,1.143
				c-1.632,0.49-2.856,1.224-3.673,2.203c-0.816,0.98-1.987,2.204-3.509,3.673c-1.526,1.47-2.857,3.159-4,5.061
				c-1.142,1.906-2.122,4-2.938,6.286c-0.817,2.285-1.143,4.244-0.98,5.876s0.462,3.346,0.898,5.142
				c0.433,1.796,0.979,3.265,1.632,4.408c0.653,1.143,1.605,2.641,2.857,4.489c1.25,1.853,2.584,3.294,3.999,4.326
				c1.413,1.036,3.237,2.069,5.469,3.102c2.229,1.036,4.461,1.607,6.693,1.714c2.229,0.109,4.081,0.163,5.551,0.163
				c1.469,0,2.775-0.189,3.918-0.571c1.143-0.379,2.094-0.869,2.856-1.469c0.76-0.597,1.605-1.441,2.53-2.53
				c0.924-1.087,1.714-2.584,2.367-4.489c0.653-1.903,1.169-3.862,1.551-5.878c0.379-2.012,0.515-4.678,0.407-7.998
				c-0.109-3.319-0.163-5.739-0.163-7.265c0-1.522-0.109-2.556-0.326-3.102c-0.22-0.544-0.22-1.224,0-2.04
				c0.217-0.817,0.679-1.224,1.387-1.224c0.707,0,1.224,0.109,1.55,0.326c0.327,0.22,1.034,0.327,2.123,0.327l8.815-0.163
				c1.306,0.219,2.474,0.517,3.509,0.897c1.034,0.383,2.095,0.926,3.184,1.633c1.086,0.709,1.984,1.443,2.693,2.203
				c0.707,0.762,1.332,1.607,1.877,2.53c0.544,0.926,1.032,1.905,1.469,2.939c0.434,1.036,0.734,2.068,0.898,3.102
				c0.163,1.036,0.054,2.232-0.327,3.592c-0.383,1.362-1.036,2.612-1.959,3.755c-0.926,1.142-2.122,2.53-3.592,4.162
				c-1.469,1.633-2.64,2.612-3.509,2.939c2.502,1.959,4.624,3.729,6.366,5.305C116.094,277.544,117.183,278.605,117.62,279.149z
				 M74.196,264.783c-1.2-0.218-2.069-0.353-2.613-0.409c-0.546-0.054-1.334-0.462-2.366-1.224c-1.036-0.76-1.96-1.495-2.776-2.204
				c-0.816-0.707-1.415-1.359-1.796-1.959c-0.383-0.596-0.734-1.576-1.06-2.938c-0.327-1.359-0.355-2.449-0.083-3.266
				c0.271-0.816,0.736-1.713,1.388-2.693s1.167-1.686,1.55-2.122c0.381-0.434,0.707-0.817,0.98-1.143
				c0.27-0.327,1.005-0.653,2.203-0.98c1.196-0.326,2.286-0.544,3.265-0.653c1.633,0.98,2.449,2.395,2.449,4.245
				c-0.435,0.98-0.681,1.714-0.734,2.204c-0.056,0.489-0.081,2.04-0.081,4.652c0,2.068-0.273,3.538-0.816,4.408
				c0.433,0.22,0.76,0.383,0.979,0.49c0.327,0.109,0.625,0.518,0.898,1.224c0.27,0.709,0.326,1.28,0.163,1.714
				C75.584,264.565,75.066,264.783,74.196,264.783z M70.768,250.743c-0.873,0.22-1.633,0.734-2.286,1.551
				c-0.653,0.816-0.979,1.55-0.979,2.203s0,1.143,0,1.469c0,0.327,0.27,0.71,0.816,1.143c0.434,0.327,1.25,0.926,2.449,1.796
				C70.331,257.056,70.331,254.335,70.768,250.743z M124.803,223.645c-1.416-0.218-2.232-0.653-2.449-1.306
				c-0.22-0.653-0.817-1.659-1.796-3.02c-0.98-1.359-1.988-2.776-3.02-4.245c-1.036-1.469-1.77-2.964-2.204-4.489
				c-0.435-1.524-1.007-2.665-1.713-3.429c-0.71-0.76-1.252-1.387-1.633-1.877c-0.383-0.49-0.897-0.816-1.55-0.979
				c-0.654-0.164-0.98-0.597-0.98-1.306c0-0.707,0.081-1.332,0.244-1.877c0.164-0.544,0.679-1.388,1.551-2.53
				c0.869-1.143,1.822-1.984,2.856-2.53c1.034-0.544,2.014-1.25,2.939-2.123c0.923-0.869,1.849-1.55,2.776-2.04
				c0.923-0.49,1.984-1.006,3.183-1.551c1.196-0.542,2.066-0.734,2.612-0.571c0.544,0.164,1.032,0.546,1.469,1.143
				c0.434,0.599,0.76,1.171,0.98,1.714c2.066,1.415,3.999,3.183,5.796,5.306c1.795,2.122,3.317,4.408,4.569,6.855
				c1.25,2.449,2.286,4.273,3.103,5.469c0.817,1.199,1.196,2.179,1.143,2.939c-0.056,0.762-0.246,1.199-0.571,1.306
				c-0.326,0.109-0.897,0.599-1.714,1.469c-0.817,0.873-1.795,1.689-2.938,2.449c-1.143,0.763-2.315,1.388-3.511,1.877
				c-1.199,0.49-3.538,1.224-7.019,2.204C126.705,223.48,125.998,223.863,124.803,223.645z M137.699,211.728
				c-1.089-1.524-2.938-4.217-5.549-8.081c-2.612-3.862-4.327-6.176-5.143-6.938c-0.816-0.76-1.77-1.25-2.856-1.47
				c-0.436,0.22-1.689,1.117-3.756,2.694c-2.068,1.578-3.591,2.856-4.571,3.836c1.196,2.505,2.066,4.571,2.612,6.203
				c0.544,1.632,1.169,2.938,1.877,3.918c0.707,0.979,2.367,3.211,4.979,6.693C130.951,215.971,135.087,213.686,137.699,211.728z"/>
			<path id="XMLID_217_" class="st5" d="M117.62,278.371c5.331-1.848,8.432-3.429,9.305-4.735c0.869-1.306,1.768-2.393,2.693-3.264
				c0.924-0.871,1.796-2.094,2.612-3.674c0.817-1.576,1.496-3.237,2.041-4.978c0.542-1.741,1.06-3.645,1.55-5.715
				c0.49-2.065,0.788-3.755,0.898-5.061c0.107-1.306,0.025-2.857-0.246-4.652c-0.272-1.797-0.627-3.453-1.06-4.98
				c-0.436-1.522-1.2-2.909-2.286-4.161c-1.089-1.25-2.069-2.15-2.939-2.694c-0.872-0.545-2.64-1.714-5.305-3.509
				c-2.669-1.797-5.77-2.993-9.305-3.592c-3.538-0.598-6.395-0.953-8.571-1.063c-2.179-0.107-6.693,0.275-13.55,1.143
				c-0.546,0-1.469-0.326-2.775-0.98c-0.546-1.194-0.816-2.337-0.816-3.427c0-1.087-0.083-2.094-0.246-3.02
				c-0.163-0.924-0.383-1.739-0.653-2.449c-0.272-0.708-0.137-1.25,0.409-1.632c0.544-0.382,1.632-0.462,3.265-0.246
				c3.482-0.433,6.856-0.545,10.121-0.326c-0.219-0.545-0.354-1.634-0.407-3.266c-0.057-1.632-0.029-4.409,0.081-8.326
				c-1.199,0.438-2.041,0.571-2.53,0.409c-0.49-0.163-1.607-0.054-3.347,0.326c-1.742,0.384-3.02,0.817-3.836,1.306
				c-0.816,0.491-1.632,0.491-2.449,0c-0.816-0.489-1.306-1.576-1.469-3.264c-0.163-1.685-0.273-2.964-0.327-3.837
				c-0.056-0.868-0.028-2.011,0.083-3.427l-0.817-0.98c-1.525,0.545-3.265,0.761-5.223,0.652c-1.959-0.107-4.681-0.054-8.162,0.163
				c-3.485,0.221-5.551,0.384-6.203,0.491c0,0.326-0.056,1.877-0.163,4.652c-0.11,2.775-0.138,4.436-0.083,4.978
				c0.054,0.547,0,1.009-0.163,1.388c-0.163,0.382-0.49,0.654-0.979,0.817c-0.49,0.163-1.416,0.19-2.776,0.08
				c-1.362-0.107-2.367-0.107-3.02,0c-0.653,0.109-2.096,0.109-4.326,0c-2.231-0.107-4.055,0-5.468,0.328l-0.49,11.916
				c1.739-0.652,3.755-1.143,6.041-1.469c2.285-0.326,4.081-0.679,5.386-1.06c1.306-0.382,2.883-0.625,4.735-0.737
				c1.306,1.417,2.012,2.777,2.122,4.083c0.107,1.306,0.163,2.259,0.163,2.857c0,0.598-0.028,1.141-0.081,1.632
				c-0.056,0.489-0.028,1.036,0.081,1.632c0.107,0.6,0.299,1.335,0.571,2.203c0.271,0.873-0.081,1.444-1.06,1.714
				c-0.98,0.275-2.286,0.654-3.919,1.143c-1.632,0.491-2.856,1.226-3.673,2.203c-0.816,0.98-1.987,2.205-3.509,3.674
				c-1.526,1.469-2.857,3.159-4,5.061c-1.142,1.906-2.122,4-2.938,6.286c-0.817,2.284-1.143,4.244-0.98,5.875
				c0.163,1.634,0.462,3.346,0.898,5.143c0.433,1.795,0.979,3.264,1.632,4.406c0.653,1.143,1.605,2.641,2.857,4.489
				c1.25,1.853,2.584,3.295,3.999,4.326c1.413,1.036,3.237,2.069,5.469,3.103c2.229,1.036,4.461,1.607,6.693,1.714
				c2.229,0.109,4.081,0.163,5.551,0.163c1.469,0,2.775-0.19,3.918-0.571c1.143-0.379,2.094-0.871,2.856-1.469
				c0.76-0.598,1.605-1.442,2.53-2.531c0.924-1.087,1.714-2.583,2.367-4.489c0.653-1.902,1.169-3.862,1.551-5.878
				c0.379-2.011,0.515-4.677,0.407-7.998c-0.109-3.319-0.163-5.739-0.163-7.264c0-1.522-0.109-2.556-0.326-3.103
				c-0.22-0.542-0.22-1.223,0-2.04c0.217-0.817,0.679-1.223,1.387-1.223c0.707,0,1.224,0.109,1.55,0.326
				c0.327,0.219,1.034,0.326,2.123,0.326l8.815-0.163c1.306,0.219,2.474,0.518,3.509,0.897c1.034,0.384,2.095,0.926,3.184,1.634
				c1.086,0.708,1.984,1.442,2.693,2.203c0.707,0.761,1.332,1.607,1.877,2.529c0.544,0.926,1.032,1.906,1.469,2.94
				c0.434,1.036,0.734,2.067,0.898,3.101c0.163,1.036,0.054,2.232-0.327,3.592c-0.383,1.362-1.036,2.612-1.959,3.755
				c-0.926,1.143-2.122,2.531-3.592,4.163c-1.469,1.632-2.64,2.612-3.509,2.938c2.502,1.96,4.624,3.73,6.366,5.306
				C116.094,276.766,117.184,277.829,117.62,278.371z M75.747,263.353c-0.163,0.435-0.681,0.654-1.55,0.654
				c-1.2-0.219-2.069-0.353-2.613-0.409c-0.546-0.054-1.334-0.462-2.366-1.226c-1.036-0.759-1.96-1.493-2.776-2.203
				c-0.816-0.708-1.415-1.359-1.796-1.96c-0.383-0.596-0.734-1.576-1.06-2.938c-0.327-1.359-0.355-2.449-0.083-3.266
				c0.271-0.815,0.736-1.712,1.388-2.692s1.167-1.688,1.55-2.123c0.381-0.433,0.707-0.817,0.98-1.143
				c0.27-0.326,1.005-0.652,2.203-0.98c1.196-0.326,2.286-0.542,3.265-0.652c1.633,0.98,2.449,2.395,2.449,4.244
				c-0.435,0.98-0.681,1.714-0.734,2.205c-0.056,0.489-0.081,2.04-0.081,4.652c0,2.067-0.273,3.538-0.816,4.406
				c0.433,0.221,0.76,0.384,0.979,0.491c0.327,0.109,0.625,0.518,0.898,1.223C75.854,262.348,75.91,262.92,75.747,263.353z"/>
		</g>
		<g id="XMLID_143_">
			<path id="XMLID_149_" d="M408.689,291.066c-3.375-0.218-6.505-0.924-9.387-2.123c-2.884-1.196-5.795-2.612-8.733-4.245
				c-2.94-1.632-5.335-3.318-7.183-5.061c-1.853-1.739-3.322-3.265-4.409-4.571c-1.089-1.306-2.259-2.584-3.509-3.836
				c-1.252-1.25-2.478-2.258-3.672-3.02c-0.873,0-1.527-0.107-1.96-0.326c-0.435-0.218-0.763-0.597-0.98-1.143
				c-0.219-0.544-0.382-1.034-0.489-1.47c-0.109-0.433-0.029-0.788,0.246-1.06c0.27-0.271,0.922-0.736,1.958-1.388
				c1.034-0.653,2.639-1.576,4.815-2.775c2.176-1.196,4.409-3.02,6.695-5.469c2.286-2.449,4.081-3.862,5.386-4.245
				c1.306-0.379,2.176-0.461,2.612-0.244c0.433,0.22,0.761,0.546,0.98,0.98c0.217,0.435,1.167,1.713,2.857,3.836
				c1.685,2.122,3.755,4.191,6.203,6.203c2.449,2.015,4.514,3.346,6.203,3.999c1.685,0.653,3.264,1.28,4.735,1.877
				c1.469,0.599,3.208,0.627,5.224,0.081c2.011-0.544,3.453-1.167,4.326-1.877c0.868-0.707,1.931-1.657,3.183-2.856
				c1.25-1.197,2.147-2.556,2.692-4.082c0.545-1.522,0.817-2.992,0.817-4.408c0-1.413-0.083-2.584-0.246-3.51
				c-0.163-0.923-0.627-1.739-1.386-2.448c-0.763-0.708-1.69-1.278-2.775-1.714c-1.089-0.434-2.261-0.76-3.511-0.98
				c-1.252-0.217-2.721-0.217-4.406,0c-1.69,0.22-3.375,0.436-5.061,0.653c-1.69,0.22-3.183,0.599-4.489,1.143
				c-1.308,0.546-2.395,0.845-3.266,0.898c-0.873,0.056-1.632,0.056-2.286,0c-0.652-0.054-1.089-0.462-1.306-1.224
				c-0.219-0.76-0.518-1.605-0.897-2.531c-0.384-0.923-0.844-1.82-1.388-2.693c-0.545-0.869-1.333-1.959-2.366-3.265
				c-1.036-1.306-1.906-2.693-2.612-4.163c-0.71-1.469-0.9-2.584-0.571-3.346c0.326-0.76,0.897-1.495,1.714-2.204
				c0.815-0.707,1.549-1.441,2.203-2.203c0.652-0.76,1.931-2.094,3.835-4c1.904-1.902,3.565-3.808,4.98-5.713
				c1.413-1.903,2.286-3.237,2.612-3.999c-2.286,0.219-4.652,0.464-7.101,0.734c-2.449,0.273-5.09,0.546-7.918,0.816
				c-2.831,0.273-5.386,0.682-7.672,1.224c-0.219,0.98-0.681,1.498-1.388,1.551c-0.708,0.056-1.386-0.27-2.04-0.98
				c-0.652-0.707-1.089-1.604-1.306-2.693c-0.219-1.087-0.192-1.984,0.083-2.693c0.27-0.707,0.379-2.176,0.326-4.408
				c-0.056-2.23-0.083-3.919-0.083-5.062c0-1.142,0.027-2.175,0.083-3.101c0.054-0.924,0.08-1.605,0.08-2.041
				c0-0.433,0.219-0.897,0.654-1.387c0.433-0.49,0.871-0.707,1.306-0.653c0.433,0.056,0.871,0.081,1.306,0.081
				c2.828-0.76,5.768-1.306,8.815-1.633c3.045-0.326,6.123-0.707,9.224-1.142c3.103-0.434,5.931-0.707,8.489-0.817
				c2.556-0.107,4.677-0.244,6.366-0.407c1.685-0.164,3.4-0.271,5.143-0.327c1.739-0.054,3.697-0.107,5.875-0.163
				c2.176-0.054,3.862-0.081,5.061-0.081c1.197,0,2.368-0.054,3.511-0.163c1.143-0.107,2.04-0.136,2.692-0.083
				c0.654,0.057,1.388,0.301,2.205,0.736c0.815,0.435,1.493,1.088,2.04,1.959c0.542,0.872,0.951,2.721,1.223,5.551
				c0.27,2.831,0.545,5.496,0.817,7.998c0.27,2.506,0.542,4.653,0.815,6.449c0.272,1.796,0.246,3.02-0.08,3.673
				c0,0.653-0.518,1.224-1.551,1.713c-1.036,0.49-5.469,4.437-13.304,11.835c3.154,0.111,5.197,0.327,6.121,0.653
				c0.924,0.327,2.23,0.736,3.92,1.224c1.685,0.49,3.317,1.252,4.895,2.286c1.578,1.036,2.964,2.286,4.163,3.755
				c1.197,1.469,2.286,3.158,3.266,5.061c0.98,1.905,1.659,3.755,2.04,5.551c0.379,1.796,0.596,3.211,0.654,4.245
				c0.054,1.036,0,2.64-0.165,4.816c-0.163,2.178-0.406,4.108-0.734,5.795c-0.326,1.689-0.897,3.673-1.714,5.958
				c-0.815,2.286-1.933,4.681-3.346,7.183c-1.415,2.505-3.21,4.68-5.386,6.529c-2.179,1.852-4.815,3.62-7.918,5.306
				c-3.101,1.689-6.911,2.884-11.427,3.592C419.598,291.693,414.457,291.719,408.689,291.066z M431.708,284.045
				c0.978-0.542,1.931-1.114,2.855-1.713c0.924-0.597,1.984-1.359,3.183-2.286c1.197-0.923,2.556-2.367,4.083-4.326
				c1.522-1.959,2.909-4.025,4.163-6.203c1.248-2.175,2.174-4.734,2.775-7.672c0.596-2.939,0.922-5.713,0.98-8.325
				c0.054-2.613-0.083-4.462-0.409-5.551c-0.328-1.087-1.199-2.801-2.612-5.143c-1.417-2.338-2.56-3.836-3.429-4.489
				c-0.873-0.653-1.714-1.306-2.531-1.959c-0.815-0.653-2.121-1.197-3.918-1.633c-1.795-0.433-3.565-0.816-5.306-1.142
				c-1.741-0.327-3.536-0.597-5.386-0.817c-1.089,0.763-1.933,1.281-2.529,1.551c-0.6,0.272-1.252,0-1.96-0.816
				c-0.71-0.817-1.089-1.442-1.143-1.877c-0.056-0.434,0.433-1.25,1.469-2.449c1.034-1.197,2.639-2.829,4.817-4.898
				c2.174-2.066,4.268-4.163,6.284-6.285c2.013-2.123,4.163-4,6.449-5.632c-0.547-1.633-0.873-3.645-0.98-6.041
				c-0.109-2.393-0.192-4.543-0.246-6.448c-0.056-1.903-0.464-3.89-1.223-5.959c-1.089-0.107-2.261-0.081-3.509,0.081
				c-1.252,0.163-2.614,0.301-4.083,0.409c-1.469,0.109-2.913,0.081-4.326-0.081c-1.415-0.164-4.79-0.026-10.121,0.407
				c-5.333,0.436-11.21,1.036-17.63,1.796c-6.422,0.763-10.994,1.143-13.713,1.143c0.217,2.505,0.353,4.816,0.409,6.938
				c0.054,2.123,0.083,3.783,0.083,4.979c3.371-0.433,6.391-0.842,9.059-1.224c2.665-0.379,5.739-0.679,9.224-0.897
				c3.482-0.217,5.659-0.327,6.529-0.327c0.871,0,1.525,0.436,1.96,1.306c0.433,0.873,0.788,1.526,1.06,1.96
				c0.27,0.435,0.382,0.897,0.328,1.387c-0.058,0.49-0.192,1.036-0.409,1.632c-0.221,0.599-0.817,1.579-1.797,2.939
				c-0.978,1.362-1.877,2.693-2.692,3.999c-0.817,1.307-1.69,2.587-2.612,3.837c-0.926,1.252-1.824,2.259-2.694,3.019
				c-0.873,0.763-1.824,1.661-2.857,2.694c-1.036,1.036-2.15,1.987-3.346,2.856c0.542,0.763,1.197,1.742,1.96,2.939
				c0.759,1.199,1.522,2.423,2.284,3.673c0.761,1.252,1.359,2.53,1.797,3.836c2.393-1.086,4.514-1.74,6.366-1.959
				c1.848-0.217,3.835-0.462,5.958-0.734c2.123-0.27,3.944-0.299,5.469-0.081c1.522,0.219,3.127,0.709,4.815,1.469
				c1.688,0.762,2.94,1.633,3.755,2.612c0.817,0.98,1.525,2.069,2.123,3.265c0.596,1.199,0.924,2.559,0.98,4.082
				c0.054,1.526,0.054,3.076,0,4.652c-0.056,1.579-0.326,3.02-0.817,4.326c-0.489,1.306-1.223,2.694-2.203,4.163
				c-0.98,1.469-1.795,2.423-2.449,2.857c-0.654,0.435-1.525,1.06-2.612,1.877c-1.089,0.816-2.558,1.443-4.409,1.877
				c-1.851,0.435-3.456,0.709-4.815,0.816c-1.362,0.109-2.775-0.081-4.244-0.571c-1.471-0.49-3.538-1.441-6.203-2.857
				c-2.67-1.413-5.119-2.963-7.346-4.652c-2.232-1.686-4.927-4.707-8.081-9.061c-1.199,1.089-2.587,2.613-4.163,4.572
				c-1.578,1.959-3.13,3.374-4.652,4.245c-1.527,0.872-2.721,1.525-3.592,1.959c0.433,0.546,1.277,1.142,2.529,1.796
				c1.25,0.653,2.043,1.334,2.368,2.04c0.326,0.709,0.951,1.469,1.877,2.285c0.922,0.817,1.795,1.77,2.612,2.857
				c0.817,1.089,2.42,2.286,4.815,3.592c2.393,1.306,5.25,2.775,8.572,4.408c3.317,1.632,6.799,2.775,10.447,3.428
				c3.645,0.653,6.391,0.898,8.244,0.736c1.848-0.164,3.645-0.409,5.386-0.736c1.741-0.326,3.348-0.734,4.817-1.224
				C429.014,284.781,430.402,284.372,431.708,284.045z"/>
			<path id="XMLID_148_" class="st5" d="M446.726,242.048c-1.416-2.337-2.559-3.835-3.429-4.489
				c-0.872-0.652-1.714-1.306-2.53-1.958c-0.816-0.654-2.122-1.196-3.918-1.634c-1.796-0.433-3.566-0.815-5.306-1.141
				c-1.742-0.328-3.537-0.598-5.386-0.817c-1.089,0.763-1.934,1.281-2.53,1.551c-0.599,0.272-1.252,0-1.959-0.817
				c-0.71-0.817-1.089-1.442-1.143-1.877c-0.057-0.433,0.433-1.25,1.469-2.449c1.034-1.197,2.637-2.828,4.816-4.898
				c2.175-2.065,4.269-4.163,6.285-6.284c2.012-2.123,4.163-4,6.448-5.632c-0.546-1.634-0.872-3.645-0.979-6.041
				c-0.111-2.393-0.192-4.543-0.246-6.449c-0.056-1.902-0.464-3.889-1.224-5.958c-1.089-0.107-2.26-0.083-3.509,0.08
				c-1.252,0.163-2.613,0.301-4.082,0.409c-1.469,0.109-2.913,0.083-4.326-0.08c-1.415-0.165-4.79-0.027-10.121,0.406
				c-5.334,0.438-11.21,1.036-17.63,1.797c-6.423,0.763-10.994,1.143-13.713,1.143c0.217,2.505,0.352,4.815,0.407,6.938
				c0.054,2.123,0.083,3.781,0.083,4.978c3.372-0.433,6.392-0.842,9.06-1.223c2.665-0.379,5.739-0.679,9.224-0.897
				c3.481-0.217,5.658-0.328,6.529-0.328c0.871,0,1.523,0.438,1.959,1.306c0.434,0.873,0.789,1.527,1.061,1.96
				c0.27,0.435,0.381,0.897,0.327,1.388c-0.057,0.489-0.192,1.036-0.408,1.632c-0.22,0.598-0.816,1.578-1.796,2.938
				c-0.979,1.362-1.877,2.694-2.693,4c-0.817,1.306-1.689,2.587-2.612,3.837c-0.926,1.252-1.824,2.259-2.694,3.018
				c-0.872,0.763-1.824,1.661-2.856,2.694c-1.036,1.036-2.151,1.987-3.347,2.857c0.544,0.763,1.197,1.741,1.96,2.938
				c0.76,1.199,1.522,2.424,2.285,3.674c0.76,1.252,1.359,2.529,1.796,3.835c2.393-1.085,4.515-1.739,6.366-1.958
				c1.849-0.217,3.836-0.462,5.959-0.734c2.122-0.27,3.943-0.299,5.469-0.083c1.522,0.219,3.126,0.71,4.815,1.469
				c1.686,0.763,2.939,1.634,3.755,2.612c0.817,0.98,1.523,2.069,2.123,3.266c0.596,1.199,0.923,2.558,0.979,4.081
				c0.054,1.527,0.054,3.076,0,4.652c-0.056,1.58-0.326,3.02-0.816,4.326s-1.224,2.694-2.204,4.163
				c-0.979,1.469-1.795,2.424-2.449,2.857c-0.653,0.435-1.525,1.06-2.612,1.877c-1.089,0.817-2.558,1.444-4.408,1.877
				c-1.852,0.435-3.456,0.71-4.815,0.817c-1.363,0.109-2.776-0.083-4.245-0.571c-1.47-0.491-3.538-1.442-6.203-2.857
				c-2.669-1.413-5.117-2.964-7.346-4.652c-2.232-1.688-4.926-4.708-8.081-9.061c-1.199,1.089-2.586,2.612-4.163,4.572
				c-1.578,1.958-3.13,3.373-4.652,4.244c-1.526,0.873-2.721,1.525-3.592,1.96c0.434,0.545,1.278,1.141,2.53,1.795
				c1.25,0.654,2.041,1.335,2.367,2.04c0.327,0.71,0.951,1.469,1.877,2.286c0.923,0.817,1.796,1.77,2.612,2.857
				c0.817,1.089,2.421,2.286,4.816,3.592c2.393,1.306,5.249,2.775,8.571,4.406c3.318,1.632,6.799,2.775,10.447,3.429
				c3.645,0.652,6.392,0.897,8.245,0.734c1.848-0.163,3.644-0.409,5.386-0.734c1.74-0.326,3.347-0.734,4.816-1.225
				c1.469-0.489,2.857-0.897,4.163-1.223c0.979-0.542,1.931-1.114,2.856-1.714c0.923-0.596,1.984-1.359,3.183-2.286
				c1.197-0.922,2.556-2.366,4.082-4.326c1.522-1.958,2.91-4.025,4.163-6.203c1.249-2.174,2.175-4.732,2.775-7.672
				c0.597-2.938,0.923-5.712,0.98-8.324c0.054-2.614-0.083-4.462-0.409-5.552C449.011,246.104,448.139,244.39,446.726,242.048z"/>
		</g>
		<g id="XMLID_107_">
			<path id="XMLID_109_" d="M237.443,276.7c-1.199-1.196-2.366-2.53-3.509-4c-1.143-1.469-2.668-2.963-4.572-4.489
				c-1.904-1.522-4.081-3.428-6.529-5.714c-2.449-2.286-5.987-6.013-10.612-11.183c-4.625-5.168-8.625-9.44-11.998-12.815
				c-3.373-3.372-5.632-5.494-6.775-6.366c-1.143-0.869-2.067-1.25-2.775-1.143c-0.71,0.11-1.661,0.49-2.857,1.143
				c-1.199,0.653-2.692,2.26-4.489,4.816c-1.795,2.558-3.02,4.571-3.672,6.041c-0.654,1.469-1.469,2.803-2.449,3.999
				c-0.98,1.199-1.743,2.449-2.286,3.755c-0.326,1.306-0.681,2.04-1.06,2.204c-0.384,0.163-1.252-0.083-2.612-0.736
				c-1.364-0.653-3.348-1.959-5.96-3.918s-5.442-3.535-8.487-4.734c-3.049-1.196-4.79-2.393-5.226-3.592
				c-1.089,0-1.824-0.217-2.203-0.653c-0.382-0.434-0.571-0.952-0.571-1.551c0-0.596,0.107-1.114,0.326-1.55
				c0.217-0.434,0.708-1.061,1.471-1.877c0.759-0.816,1.931-2.204,3.509-4.163c1.576-1.959,3.918-4.841,7.018-8.652
				c3.103-3.808,6.802-7.591,11.101-11.345s7.045-5.876,8.244-6.366c1.196-0.49,2.531-1.005,4-1.551
				c1.469-0.542,2.993-1.032,4.572-1.469c1.576-0.433,3.429-0.544,5.549-0.326c2.123,0.219,4.462,1.06,7.02,2.53
				c2.556,1.469,4.788,3.048,6.692,4.734c1.904,1.689,4.353,3.783,7.346,6.285c2.991,2.505,5.114,4.273,6.366,5.306
				c1.25,1.036,2.449,2.231,3.592,3.592c1.143,1.362,2.775,2.966,4.898,4.815c2.123,1.852,4.326,3.812,6.612,5.878
				c2.286,2.068,4.677,4.108,7.183,6.121c2.502,2.016,4.489,3.73,5.958,5.143c1.469,1.415,2.719,2.64,3.755,3.673
				c1.034,1.035,1.958,1.741,2.775,2.122c0.817,0.383,1.388,0.844,1.714,1.387c0.326,0.546,0.489,1.252,0.489,2.123
				c0,0.872-0.136,1.443-0.406,1.713c-0.275,0.273-1.226,0.571-2.857,0.898c-2.286,3.158-5.199,6.721-8.735,10.693
				c-3.538,3.973-5.822,6.611-6.855,7.918C239.102,276.7,238.204,277.135,237.443,276.7z M238.097,270.332
				c1.739-1.959,4.188-4.759,7.344-8.407c3.156-3.645,5.389-6.501,6.695-8.571c-4.898-4.571-10.748-9.738-17.55-15.509
				c-6.802-5.767-12.813-11.181-18.039-16.243c-5.223-5.061-9.442-8.815-12.65-11.264c-3.212-2.449-5.415-3.862-6.612-4.244
				c-1.199-0.381-2.804-0.49-4.815-0.327c-2.016,0.163-4.139,0.599-6.369,1.306c-2.23,0.709-4.054,1.661-5.467,2.857
				c-1.417,1.199-3.241,2.775-5.469,4.734c-2.232,1.959-4.681,4.326-7.346,7.102c-2.668,2.775-4.139,4.571-4.409,5.386
				c-0.272,0.817-1.496,2.204-3.672,4.163c-2.179,1.959-4.027,4.028-5.552,6.203c1.087,0.436,2.176,0.844,3.266,1.224
				c1.087,0.383,2.366,0.872,3.837,1.469c1.469,0.599,3.29,1.77,5.467,3.51c2.176,1.742,3.862,2.885,5.063,3.428
				c0.759-1.306,1.549-2.473,2.366-3.509c0.817-1.034,1.685-2.258,2.612-3.673c0.924-1.413,2.067-3.265,3.429-5.551
				c1.359-2.286,2.612-3.918,3.755-4.898c1.143-0.979,2.366-1.768,3.672-2.367c1.306-0.596,2.449-0.842,3.429-0.734
				c0.98,0.109,2.014,0.436,3.101,0.98c1.087,0.546,2.15,1.199,3.183,1.959c1.034,0.762,2.422,1.987,4.163,3.673
				c1.741,1.689,5.96,6.068,12.652,13.141c6.692,7.075,10.963,11.618,12.815,13.631c1.848,2.015,3.862,3.783,6.041,5.305
				C235.211,266.635,236.898,268.374,238.097,270.332z"/>
			<path id="XMLID_108_" class="st5" d="M161.289,239.436c1.469,0.6,3.29,1.77,5.468,3.511c2.176,1.741,3.862,2.884,5.062,3.427
				c0.76-1.306,1.55-2.473,2.366-3.509c0.817-1.034,1.686-2.257,2.613-3.672c0.923-1.413,2.066-3.266,3.428-5.552
				c1.359-2.286,2.612-3.918,3.755-4.898c1.143-0.978,2.367-1.768,3.673-2.366c1.306-0.596,2.449-0.842,3.428-0.734
				c0.98,0.109,2.014,0.435,3.102,0.98c1.087,0.545,2.149,1.199,3.183,1.958c1.034,0.763,2.421,1.987,4.163,3.674
				c1.74,1.688,5.959,6.067,12.651,13.141c6.693,7.074,10.964,11.617,12.815,13.63c1.849,2.016,3.862,3.784,6.04,5.306
				c2.175,1.525,3.862,3.264,5.061,5.224c1.739-1.96,4.188-4.759,7.345-8.407c3.155-3.645,5.388-6.503,6.693-8.572
				c-4.898-4.569-10.748-9.737-17.549-15.508c-6.803-5.768-12.814-11.181-18.039-16.244c-5.224-5.061-9.442-8.815-12.651-11.264
				c-3.211-2.449-5.415-3.862-6.612-4.244c-1.199-0.379-2.803-0.489-4.815-0.326c-2.016,0.163-4.137,0.598-6.368,1.306
				c-2.231,0.708-4.055,1.661-5.468,2.857c-1.416,1.199-3.24,2.775-5.469,4.732c-2.232,1.96-4.681,4.326-7.346,7.103
				c-2.668,2.775-4.137,4.569-4.408,5.386c-0.272,0.817-1.497,2.203-3.673,4.163c-2.178,1.958-4.027,4.027-5.551,6.203
				c1.087,0.435,2.176,0.844,3.266,1.223C158.538,238.351,159.819,238.84,161.289,239.436z"/>
		</g>
		<g id="XMLID_97_">
			<path id="XMLID_102_" d="M290.5,288.29c-2.069-1.197-4.409-2.04-7.02-2.53s-5.253-0.816-7.918-0.979
				c-2.668-0.164-4.465-0.327-5.386-0.49c-0.926-0.163-1.743-0.299-2.449-0.408c-0.71-0.107-1.525-0.49-2.449-1.143
				c-0.926-0.653-1.281-1.387-1.06-2.203c0.217-0.817,0.705-2.449,1.469-4.898c0.759-2.449,1.44-6.801,2.04-13.06
				c0.596-6.257,1.06-11.427,1.388-15.509c0.326-4.081,0.676-6.693,1.06-7.835c0.379-1.143,0.542-3.482,0.489-7.02
				c-0.056-3.535,0.083-6.555,0.409-9.06c0.326-2.502,0.761-5.686,1.306-9.55c0.545-3.862,1.114-8.134,1.714-12.815
				c0.596-4.678,0.951-7.644,1.06-8.897c0.107-1.25,0.571-2.012,1.388-2.286c0.817-0.27,2.991-0.217,6.529,0.163
				c3.536,0.383,6.474,0.518,8.815,0.409c2.339-0.107,4.625-0.026,6.858,0.244c2.228,0.273,3.942,0.383,5.141,0.327
				c1.196-0.054,1.984,0.355,2.368,1.224c0.379,0.873,0.516,1.661,0.409,2.367c-0.112,0.709-0.384,1.443-0.817,2.203
				c0,3.592-0.547,8.244-1.632,13.958c-1.089,5.713-2.315,11.157-3.674,16.325c-1.362,5.17-2.313,9.442-2.857,12.814
				c0.871-0.326,2.043-1.469,3.511-3.428c1.469-1.959,2.719-3.862,3.755-5.713c1.031-1.849,2.121-3.617,3.264-5.306
				c1.143-1.685,2.147-3.102,3.02-4.245c0.871-1.142,1.522-2.012,1.96-2.612c0.433-0.597,0.98-0.979,1.632-1.143
				c0.654-0.163,1.522-0.135,2.612,0.081c1.087,0.22,2.368,0.682,3.837,1.388c1.469,0.709,3.29,1.252,5.469,1.632
				c2.174,0.383,3.779,0.791,4.815,1.224c1.034,0.436,1.795,1.199,2.286,2.286c0.489,1.089,0.462,1.959-0.083,2.612
				c0.654,1.199,0.98,2.395,0.98,3.592c0,1.199,0,3.836,0,7.918c0,4.081,0.27,6.884,0.817,8.407
				c0.542,1.526,0.951,3.158,1.223,4.898c0.27,1.742,0.545,2.856,0.817,3.346c0.27,0.49,0.625,0.763,1.06,0.817
				c0.433,0.056,0.924,0.056,1.469,0c0.545-0.054,1.525-0.353,2.94-0.898c1.413-0.544,3.755-2.229,7.018-5.061
				c0.435-1.196,0.871-2.122,1.306-2.775s1.17-0.898,2.205-0.736c1.031,0.164,1.714,0.817,2.04,1.96
				c0.326,1.142,1.087,2.803,2.286,4.978c1.197,2.179,2.228,4.11,3.101,5.796c0.871,1.689,1.576,2.938,2.123,3.755
				c0.542,0.816,0.815,1.796,0.815,2.938c0,1.143-0.219,2.069-0.652,2.776c-0.435,0.709-0.98,1.469-1.632,2.286
				c-0.654,0.816-1.364,1.55-2.123,2.203c-0.763,0.653-1.906,1.551-3.429,2.693c-1.525,1.143-3.239,2.342-5.141,3.592
				c-1.906,1.252-3.813,2.151-5.715,2.694c-1.906,0.546-3.618,1.035-5.143,1.469c-1.525,0.436-3.183,0.627-4.978,0.571
				c-1.797-0.054-3.346-0.246-4.652-0.571c-1.306-0.327-2.449-0.816-3.429-1.469c-0.98-0.654-2.069-1.524-3.266-2.613
				c-1.199-1.086-2.668-3.265-4.406-6.529c-1.743-3.265-2.94-6.285-3.592-9.061c-0.654-2.775-1.199-4.979-1.632-6.611
				c-3.701,4.463-6.641,8.081-8.815,10.855c-2.179,2.776-4.139,5.632-5.878,8.571c-1.743,2.939-3.346,5.823-4.817,8.652
				C293.192,287.693,291.806,288.836,290.5,288.29z M289.357,282.739c1.306-1.306,2.529-2.8,3.672-4.489
				c1.143-1.685,2.147-3.592,3.02-5.713c0.871-2.122,1.984-4.025,3.346-5.714c1.359-1.686,2.393-2.992,3.103-3.918
				c0.705-0.924,1.413-1.877,2.121-2.857c0.708-0.98,1.413-1.959,2.123-2.939c0.708-0.979,1.413-2.012,2.123-3.102
				c0.705-1.086,1.605-2.094,2.692-3.02c1.087-0.923,1.877-1.604,2.368-2.04c0.489-0.433,0.951-0.653,1.386-0.653
				c0.435,0,0.98,0.383,1.634,1.143c0.652,0.762,1.087,1.905,1.306,3.428c0.217,1.526,0.652,3.812,1.306,6.856
				c0.652,3.048,1.685,5.933,3.101,8.652c1.413,2.722,2.964,4.898,4.654,6.53c1.685,1.632,3.183,2.586,4.489,2.856
				c1.306,0.273,2.991,0.383,5.061,0.327c2.065-0.054,4.596-0.707,7.59-1.959c2.993-1.25,5.768-2.801,8.326-4.653
				c2.556-1.849,4.815-4.025,6.775-6.529c-1.306-1.959-2.478-3.943-3.509-5.959c-1.036-2.012-1.877-3.836-2.531-5.468
				c-0.98,0.219-1.904,0.79-2.775,1.713c-0.873,0.926-1.906,1.77-3.103,2.53c-1.199,0.763-2.395,1.416-3.589,1.959
				c-1.201,0.547-2.56,0.845-4.083,0.898c-1.525,0.056-2.639-0.054-3.346-0.327c-0.71-0.27-1.498-0.979-2.366-2.122
				c-0.873-1.143-1.551-3.209-2.04-6.203c-0.491-2.992-1.036-5.469-1.634-7.428c-0.598-1.959-0.681-7.835-0.243-17.63
				c-1.418-0.76-3.049-1.332-4.898-1.714c-1.853-0.379-3.295-0.816-4.326-1.306c-1.036-0.49-2.587-0.842-4.654-1.061
				c-2.505,3.701-4.761,7.02-6.775,9.958c-2.014,2.939-4.136,5.933-6.366,8.979c-2.23,3.048-3.864,5.305-4.898,6.775
				c-1.034,1.469-1.795,2.366-2.284,2.693c-0.491,0.326-1.118,0.244-1.877-0.246c-0.763-0.489-1.417-1.032-1.96-1.632
				c-0.545-0.597-0.71-1.25-0.489-1.959c0.217-0.707,0.542-2.421,0.978-5.143c0.435-2.719,1.226-7.073,2.368-13.059
				c1.143-5.985,2.286-11.889,3.429-17.713c1.143-5.821,2.04-11.183,2.692-16.08c-1.199-0.217-2.913-0.379-5.141-0.489
				c-2.232-0.107-4.163-0.135-5.797-0.081c-1.632,0.056-5.279-0.246-10.936-0.898c-0.328,4.354-0.79,8.79-1.388,13.304
				c-0.598,4.518-1.116,8.954-1.551,13.305c-0.435,4.354-0.681,8.545-0.734,12.57c-0.056,4.027-0.382,8.027-0.978,11.998
				c-0.6,3.975-1.036,6.831-1.308,8.571c-0.272,1.742-0.435,3.456-0.489,5.142c-0.056,1.689-0.246,3.836-0.571,6.448
				c-0.326,2.613-0.734,5.117-1.223,7.509c-0.491,2.395-0.846,4.408-1.063,6.041c1.851,0.653,3.944,1.089,6.286,1.306
				c2.339,0.22,4.543,0.464,6.612,0.734C285.055,281.135,287.178,281.76,289.357,282.739z"/>
			<path id="XMLID_98_" class="st5" d="M304.619,259.272c0.707-0.98,1.413-1.96,2.123-2.94c0.707-0.978,1.413-2.011,2.122-3.101
				c0.707-1.087,1.605-2.094,2.693-3.02c1.087-0.924,1.877-1.605,2.367-2.04c0.49-0.433,0.952-0.654,1.387-0.654
				c0.434,0,0.98,0.384,1.633,1.143c0.653,0.763,1.087,1.906,1.306,3.429c0.217,1.525,0.653,3.81,1.306,6.855
				c0.653,3.049,1.686,5.933,3.102,8.652c1.413,2.723,2.964,4.898,4.653,6.532c1.685,1.632,3.183,2.585,4.489,2.855
				c1.306,0.275,2.992,0.384,5.061,0.328c2.066-0.054,4.596-0.708,7.591-1.96c2.992-1.25,5.767-2.801,8.325-4.652
				c2.556-1.851,4.816-4.025,6.775-6.529c-1.306-1.96-2.477-3.944-3.509-5.96c-1.036-2.011-1.877-3.835-2.53-5.467
				c-0.98,0.219-1.905,0.79-2.776,1.712c-0.872,0.926-1.905,1.77-3.102,2.531c-1.199,0.763-2.395,1.415-3.591,1.958
				c-1.2,0.547-2.559,0.846-4.082,0.9c-1.526,0.056-2.64-0.054-3.346-0.328c-0.71-0.27-1.498-0.978-2.367-2.121
				c-0.873-1.143-1.551-3.21-2.04-6.203c-0.49-2.993-1.036-5.469-1.633-7.429c-0.599-1.958-0.681-7.835-0.244-17.63
				c-1.416-0.759-3.048-1.33-4.898-1.714c-1.852-0.379-3.294-0.815-4.326-1.306c-1.036-0.489-2.587-0.842-4.653-1.06
				c-2.505,3.701-4.761,7.02-6.775,9.958c-2.015,2.938-4.136,5.933-6.366,8.978c-2.231,3.049-3.864,5.306-4.898,6.775
				c-1.035,1.469-1.795,2.366-2.285,2.694c-0.49,0.326-1.117,0.243-1.877-0.246c-0.763-0.489-1.416-1.034-1.959-1.632
				c-0.546-0.598-0.71-1.25-0.49-1.96c0.217-0.705,0.544-2.42,0.979-5.143c0.434-2.719,1.224-7.072,2.367-13.059
				c1.143-5.985,2.286-11.889,3.429-17.713c1.143-5.82,2.04-11.181,2.693-16.079c-1.199-0.217-2.913-0.379-5.142-0.489
				c-2.232-0.107-4.163-0.136-5.796-0.083c-1.632,0.056-5.279-0.246-10.937-0.897c-0.327,4.353-0.79,8.788-1.387,13.304
				c-0.599,4.518-1.117,8.954-1.551,13.304c-0.436,4.355-0.681,8.545-0.734,12.57c-0.056,4.027-0.383,8.027-0.979,11.998
				c-0.6,3.976-1.036,6.831-1.307,8.572c-0.272,1.741-0.435,3.456-0.489,5.141c-0.057,1.69-0.246,3.837-0.571,6.449
				c-0.327,2.612-0.734,5.116-1.224,7.509c-0.49,2.395-0.845,4.406-1.061,6.041c1.849,0.652,3.943,1.089,6.285,1.306
				c2.339,0.219,4.543,0.464,6.612,0.734c2.066,0.272,4.188,0.897,6.366,1.877c1.306-1.306,2.53-2.801,3.673-4.489
				c1.143-1.685,2.147-3.592,3.02-5.715c0.869-2.121,1.984-4.025,3.346-5.712c1.359-1.688,2.393-2.993,3.102-3.918
				C303.204,261.205,303.91,260.252,304.619,259.272z"/>
		</g>
	</g>
</g>
</svg>
